solid OpenSCAD_Model
  facet normal 1 -0 0
    outer loop
      vertex 37.04 32.6 0.9
      vertex 37.04 45.2 -0.9
      vertex 37.04 45.2 0.9
    endloop
  endfacet
  facet normal 1 0 0
    outer loop
      vertex 37.04 45.2 -0.9
      vertex 37.04 32.6 0.9
      vertex 37.04 32.6 -0.9
    endloop
  endfacet
  facet normal -1 0 0
    outer loop
      vertex 34.64 32.6 -0.9
      vertex 34.64 45.2 0.9
      vertex 34.64 45.2 -0.9
    endloop
  endfacet
  facet normal -1 -0 0
    outer loop
      vertex 34.64 45.2 0.9
      vertex 34.64 32.6 -0.9
      vertex 34.64 32.6 0.9
    endloop
  endfacet
  facet normal 1 -0 0
    outer loop
      vertex 75.12 32.6 0.9
      vertex 75.12 45.2 -0.9
      vertex 75.12 45.2 0.9
    endloop
  endfacet
  facet normal 1 0 0
    outer loop
      vertex 75.12 45.2 -0.9
      vertex 75.12 32.6 0.9
      vertex 75.12 32.6 -0.9
    endloop
  endfacet
  facet normal -1 0 0
    outer loop
      vertex 72.72 32.6 -0.9
      vertex 72.72 45.2 0.9
      vertex 72.72 45.2 -0.9
    endloop
  endfacet
  facet normal -1 -0 0
    outer loop
      vertex 72.72 45.2 0.9
      vertex 72.72 32.6 -0.9
      vertex 72.72 32.6 0.9
    endloop
  endfacet
  facet normal -1 0 0
    outer loop
      vertex 109 32.6 -0.9
      vertex 109 45.2 0.9
      vertex 109 45.2 -0.9
    endloop
  endfacet
  facet normal -1 -0 0
    outer loop
      vertex 109 45.2 0.9
      vertex 109 32.6 -0.9
      vertex 109 32.6 0.9
    endloop
  endfacet
  facet normal 1 -0 0
    outer loop
      vertex 3 32.6 0.9
      vertex 3 45.2 -0.9
      vertex 3 45.2 0.9
    endloop
  endfacet
  facet normal 1 0 0
    outer loop
      vertex 3 45.2 -0.9
      vertex 3 32.6 0.9
      vertex 3 32.6 -0.9
    endloop
  endfacet
  facet normal 0 -1 0
    outer loop
      vertex 3 45.2 -0.9
      vertex 34.64 45.2 0.9
      vertex 3 45.2 0.9
    endloop
  endfacet
  facet normal 0 -1 -0
    outer loop
      vertex 34.64 45.2 0.9
      vertex 3 45.2 -0.9
      vertex 34.64 45.2 -0.9
    endloop
  endfacet
  facet normal 0 -1 0
    outer loop
      vertex 37.04 45.2 -0.9
      vertex 72.72 45.2 0.9
      vertex 37.04 45.2 0.9
    endloop
  endfacet
  facet normal 0 -1 -0
    outer loop
      vertex 72.72 45.2 0.9
      vertex 37.04 45.2 -0.9
      vertex 72.72 45.2 -0.9
    endloop
  endfacet
  facet normal 0 -1 0
    outer loop
      vertex 75.12 45.2 -0.9
      vertex 109 45.2 0.9
      vertex 75.12 45.2 0.9
    endloop
  endfacet
  facet normal 0 -1 -0
    outer loop
      vertex 109 45.2 0.9
      vertex 75.12 45.2 -0.9
      vertex 109 45.2 -0.9
    endloop
  endfacet
  facet normal 0 1 -0
    outer loop
      vertex 34.64 32.6 -0.9
      vertex 3 32.6 0.9
      vertex 34.64 32.6 0.9
    endloop
  endfacet
  facet normal 0 1 0
    outer loop
      vertex 3 32.6 0.9
      vertex 34.64 32.6 -0.9
      vertex 3 32.6 -0.9
    endloop
  endfacet
  facet normal 0 1 -0
    outer loop
      vertex 72.72 32.6 -0.9
      vertex 37.04 32.6 0.9
      vertex 72.72 32.6 0.9
    endloop
  endfacet
  facet normal 0 1 0
    outer loop
      vertex 37.04 32.6 0.9
      vertex 72.72 32.6 -0.9
      vertex 37.04 32.6 -0.9
    endloop
  endfacet
  facet normal 0 1 -0
    outer loop
      vertex 109 32.6 -0.9
      vertex 75.12 32.6 0.9
      vertex 109 32.6 0.9
    endloop
  endfacet
  facet normal 0 1 0
    outer loop
      vertex 75.12 32.6 0.9
      vertex 109 32.6 -0.9
      vertex 75.12 32.6 -0.9
    endloop
  endfacet
  facet normal 1 -0 0
    outer loop
      vertex 37.04 -45.2 0.9
      vertex 37.04 -33 -0.9
      vertex 37.04 -33 0.9
    endloop
  endfacet
  facet normal 1 0 0
    outer loop
      vertex 37.04 -33 -0.9
      vertex 37.04 -45.2 0.9
      vertex 37.04 -45.2 -0.9
    endloop
  endfacet
  facet normal -1 0 0
    outer loop
      vertex 34.64 -45.2 -0.9
      vertex 34.64 -33 0.9
      vertex 34.64 -33 -0.9
    endloop
  endfacet
  facet normal -1 -0 0
    outer loop
      vertex 34.64 -33 0.9
      vertex 34.64 -45.2 -0.9
      vertex 34.64 -45.2 0.9
    endloop
  endfacet
  facet normal 1 -0 0
    outer loop
      vertex 75.12 -45.2 0.9
      vertex 75.12 -33 -0.9
      vertex 75.12 -33 0.9
    endloop
  endfacet
  facet normal 1 0 0
    outer loop
      vertex 75.12 -33 -0.9
      vertex 75.12 -45.2 0.9
      vertex 75.12 -45.2 -0.9
    endloop
  endfacet
  facet normal -1 0 0
    outer loop
      vertex 72.72 -45.2 -0.9
      vertex 72.72 -33 0.9
      vertex 72.72 -33 -0.9
    endloop
  endfacet
  facet normal -1 -0 0
    outer loop
      vertex 72.72 -33 0.9
      vertex 72.72 -45.2 -0.9
      vertex 72.72 -45.2 0.9
    endloop
  endfacet
  facet normal -1 0 0
    outer loop
      vertex 109 -45.2 -0.9
      vertex 109 -33 0.9
      vertex 109 -33 -0.9
    endloop
  endfacet
  facet normal -1 -0 0
    outer loop
      vertex 109 -33 0.9
      vertex 109 -45.2 -0.9
      vertex 109 -45.2 0.9
    endloop
  endfacet
  facet normal 1 -0 0
    outer loop
      vertex 3 -45.2 0.9
      vertex 3 -33 -0.9
      vertex 3 -33 0.9
    endloop
  endfacet
  facet normal 1 0 0
    outer loop
      vertex 3 -33 -0.9
      vertex 3 -45.2 0.9
      vertex 3 -45.2 -0.9
    endloop
  endfacet
  facet normal 0 -1 0
    outer loop
      vertex 3 -33 -0.9
      vertex 34.64 -33 0.9
      vertex 3 -33 0.9
    endloop
  endfacet
  facet normal 0 -1 -0
    outer loop
      vertex 34.64 -33 0.9
      vertex 3 -33 -0.9
      vertex 34.64 -33 -0.9
    endloop
  endfacet
  facet normal 0 -1 0
    outer loop
      vertex 37.04 -33 -0.9
      vertex 72.72 -33 0.9
      vertex 37.04 -33 0.9
    endloop
  endfacet
  facet normal 0 -1 -0
    outer loop
      vertex 72.72 -33 0.9
      vertex 37.04 -33 -0.9
      vertex 72.72 -33 -0.9
    endloop
  endfacet
  facet normal 0 -1 0
    outer loop
      vertex 75.12 -33 -0.9
      vertex 109 -33 0.9
      vertex 75.12 -33 0.9
    endloop
  endfacet
  facet normal 0 -1 -0
    outer loop
      vertex 109 -33 0.9
      vertex 75.12 -33 -0.9
      vertex 109 -33 -0.9
    endloop
  endfacet
  facet normal 0 1 -0
    outer loop
      vertex 34.64 -45.2 -0.9
      vertex 3 -45.2 0.9
      vertex 34.64 -45.2 0.9
    endloop
  endfacet
  facet normal 0 1 0
    outer loop
      vertex 3 -45.2 0.9
      vertex 34.64 -45.2 -0.9
      vertex 3 -45.2 -0.9
    endloop
  endfacet
  facet normal 0 1 -0
    outer loop
      vertex 72.72 -45.2 -0.9
      vertex 37.04 -45.2 0.9
      vertex 72.72 -45.2 0.9
    endloop
  endfacet
  facet normal 0 1 0
    outer loop
      vertex 37.04 -45.2 0.9
      vertex 72.72 -45.2 -0.9
      vertex 37.04 -45.2 -0.9
    endloop
  endfacet
  facet normal 0 1 -0
    outer loop
      vertex 109 -45.2 -0.9
      vertex 75.12 -45.2 0.9
      vertex 109 -45.2 0.9
    endloop
  endfacet
  facet normal 0 1 0
    outer loop
      vertex 75.12 -45.2 0.9
      vertex 109 -45.2 -0.9
      vertex 75.12 -45.2 -0.9
    endloop
  endfacet
  facet normal -1 0 0
    outer loop
      vertex 0 48.2 -0.9
      vertex 0 47.2 0.9
      vertex 0 48.2 -0.889999
    endloop
  endfacet
  facet normal -1 0 0
    outer loop
      vertex 0 48.2 -0.9
      vertex 0 -47.2 0.9
      vertex 0 47.2 0.9
    endloop
  endfacet
  facet normal -1 0 0
    outer loop
      vertex 0 -48.2 -0.9
      vertex 0 -47.2 0.9
      vertex 0 48.2 -0.9
    endloop
  endfacet
  facet normal -1 0 0
    outer loop
      vertex 0 -47.2 0.9
      vertex 0 -48.2 -0.9
      vertex 0 -48.2 -0.889999
    endloop
  endfacet
  facet normal -0 0 1
    outer loop
      vertex 3 32.6 0.9
      vertex 34.64 -33 0.9
      vertex 34.64 32.6 0.9
    endloop
  endfacet
  facet normal 0 0 1
    outer loop
      vertex 34.64 -33 0.9
      vertex 3 32.6 0.9
      vertex 3 -33 0.9
    endloop
  endfacet
  facet normal -0 0 1
    outer loop
      vertex 37.04 32.6 0.9
      vertex 72.72 -33 0.9
      vertex 72.72 32.6 0.9
    endloop
  endfacet
  facet normal 0 0 1
    outer loop
      vertex 72.72 -33 0.9
      vertex 37.04 32.6 0.9
      vertex 37.04 -33 0.9
    endloop
  endfacet
  facet normal -0 0 1
    outer loop
      vertex 75.12 32.6 0.9
      vertex 109 -33 0.9
      vertex 109 32.6 0.9
    endloop
  endfacet
  facet normal 0 0 1
    outer loop
      vertex 109 -33 0.9
      vertex 75.12 32.6 0.9
      vertex 75.12 -33 0.9
    endloop
  endfacet
  facet normal 0 0 1
    outer loop
      vertex 109 32.6 0.9
      vertex 112 47.2 0.9
      vertex 109 45.2 0.9
    endloop
  endfacet
  facet normal 0 0 1
    outer loop
      vertex 112 47.2 0.9
      vertex 75.12 45.2 0.9
      vertex 109 45.2 0.9
    endloop
  endfacet
  facet normal 0 0 1
    outer loop
      vertex 72.72 32.6 0.9
      vertex 75.12 32.6 0.9
      vertex 75.12 45.2 0.9
    endloop
  endfacet
  facet normal 0 0 1
    outer loop
      vertex 75.12 32.6 0.9
      vertex 72.72 32.6 0.9
      vertex 75.12 -33 0.9
    endloop
  endfacet
  facet normal 0 0 1
    outer loop
      vertex 72.72 32.6 0.9
      vertex 75.12 45.2 0.9
      vertex 72.72 45.2 0.9
    endloop
  endfacet
  facet normal 0 0 1
    outer loop
      vertex 112 47.2 0.9
      vertex 72.72 45.2 0.9
      vertex 75.12 45.2 0.9
    endloop
  endfacet
  facet normal 0 0 1
    outer loop
      vertex 112 47.2 0.9
      vertex 37.04 45.2 0.9
      vertex 72.72 45.2 0.9
    endloop
  endfacet
  facet normal 0 0 1
    outer loop
      vertex 34.64 32.6 0.9
      vertex 37.04 32.6 0.9
      vertex 37.04 45.2 0.9
    endloop
  endfacet
  facet normal 0 0 1
    outer loop
      vertex 37.04 32.6 0.9
      vertex 34.64 32.6 0.9
      vertex 37.04 -33 0.9
    endloop
  endfacet
  facet normal 0 0 1
    outer loop
      vertex 34.64 32.6 0.9
      vertex 37.04 45.2 0.9
      vertex 34.64 45.2 0.9
    endloop
  endfacet
  facet normal -0 0 1
    outer loop
      vertex 0 47.2 0.9
      vertex 37.04 45.2 0.9
      vertex 112 47.2 0.9
    endloop
  endfacet
  facet normal 0 0 1
    outer loop
      vertex 37.04 45.2 0.9
      vertex 0 47.2 0.9
      vertex 34.64 45.2 0.9
    endloop
  endfacet
  facet normal 0 0 1
    outer loop
      vertex 0 47.2 0.9
      vertex 3 32.6 0.9
      vertex 3 45.2 0.9
    endloop
  endfacet
  facet normal 0 0 1
    outer loop
      vertex 3 32.6 0.9
      vertex 0 47.2 0.9
      vertex 3 -33 0.9
    endloop
  endfacet
  facet normal 0 0 1
    outer loop
      vertex 0 -47.2 0.9
      vertex 3 -33 0.9
      vertex 0 47.2 0.9
    endloop
  endfacet
  facet normal 0 0 1
    outer loop
      vertex 34.64 45.2 0.9
      vertex 0 47.2 0.9
      vertex 3 45.2 0.9
    endloop
  endfacet
  facet normal 0 0 1
    outer loop
      vertex 112 47.2 0.9
      vertex 109 32.6 0.9
      vertex 112 -47.2 0.9
    endloop
  endfacet
  facet normal -0 0 1
    outer loop
      vertex 109 -33 0.9
      vertex 112 -47.2 0.9
      vertex 109 32.6 0.9
    endloop
  endfacet
  facet normal -0 0 1
    outer loop
      vertex 109 -45.2 0.9
      vertex 112 -47.2 0.9
      vertex 109 -33 0.9
    endloop
  endfacet
  facet normal -0 0 1
    outer loop
      vertex 75.12 -45.2 0.9
      vertex 112 -47.2 0.9
      vertex 109 -45.2 0.9
    endloop
  endfacet
  facet normal 0 0 1
    outer loop
      vertex 72.72 -33 0.9
      vertex 75.12 -33 0.9
      vertex 72.72 32.6 0.9
    endloop
  endfacet
  facet normal 0 0 1
    outer loop
      vertex 75.12 -33 0.9
      vertex 72.72 -33 0.9
      vertex 75.12 -45.2 0.9
    endloop
  endfacet
  facet normal 0 0 1
    outer loop
      vertex 72.72 -45.2 0.9
      vertex 75.12 -45.2 0.9
      vertex 72.72 -33 0.9
    endloop
  endfacet
  facet normal -0 0 1
    outer loop
      vertex 72.72 -45.2 0.9
      vertex 112 -47.2 0.9
      vertex 75.12 -45.2 0.9
    endloop
  endfacet
  facet normal -0 0 1
    outer loop
      vertex 37.04 -45.2 0.9
      vertex 112 -47.2 0.9
      vertex 72.72 -45.2 0.9
    endloop
  endfacet
  facet normal 0 0 1
    outer loop
      vertex 34.64 -33 0.9
      vertex 37.04 -33 0.9
      vertex 34.64 32.6 0.9
    endloop
  endfacet
  facet normal 0 0 1
    outer loop
      vertex 37.04 -33 0.9
      vertex 34.64 -33 0.9
      vertex 37.04 -45.2 0.9
    endloop
  endfacet
  facet normal 0 0 1
    outer loop
      vertex 34.64 -45.2 0.9
      vertex 37.04 -45.2 0.9
      vertex 34.64 -33 0.9
    endloop
  endfacet
  facet normal 0 0 1
    outer loop
      vertex 0 -47.2 0.9
      vertex 37.04 -45.2 0.9
      vertex 34.64 -45.2 0.9
    endloop
  endfacet
  facet normal 0 0 1
    outer loop
      vertex 0 -47.2 0.9
      vertex 34.64 -45.2 0.9
      vertex 3 -45.2 0.9
    endloop
  endfacet
  facet normal 0 0 1
    outer loop
      vertex 37.04 -45.2 0.9
      vertex 0 -47.2 0.9
      vertex 112 -47.2 0.9
    endloop
  endfacet
  facet normal 0 0 1
    outer loop
      vertex 3 -33 0.9
      vertex 0 -47.2 0.9
      vertex 3 -45.2 0.9
    endloop
  endfacet
  facet normal 0 -1 0
    outer loop
      vertex 0 -48.2 -0.9
      vertex 112 -48.2 -0.889999
      vertex 0 -48.2 -0.889999
    endloop
  endfacet
  facet normal 0 -1 -0
    outer loop
      vertex 112 -48.2 -0.889999
      vertex 0 -48.2 -0.9
      vertex 112 -48.2 -0.9
    endloop
  endfacet
  facet normal 0 1 -0
    outer loop
      vertex 112 48.2 -0.9
      vertex 0 48.2 -0.889999
      vertex 112 48.2 -0.889999
    endloop
  endfacet
  facet normal 0 1 0
    outer loop
      vertex 0 48.2 -0.889999
      vertex 112 48.2 -0.9
      vertex 0 48.2 -0.9
    endloop
  endfacet
  facet normal 0 0.873004 0.487712
    outer loop
      vertex 112 48.2 -0.889999
      vertex 0 47.2 0.9
      vertex 112 47.2 0.9
    endloop
  endfacet
  facet normal 0 0.873004 0.487712
    outer loop
      vertex 0 47.2 0.9
      vertex 112 48.2 -0.889999
      vertex 0 48.2 -0.889999
    endloop
  endfacet
  facet normal 1 0 0
    outer loop
      vertex 112 47.2 0.9
      vertex 112 48.2 -0.9
      vertex 112 48.2 -0.889999
    endloop
  endfacet
  facet normal 1 -0 0
    outer loop
      vertex 112 -47.2 0.9
      vertex 112 48.2 -0.9
      vertex 112 47.2 0.9
    endloop
  endfacet
  facet normal 1 0 0
    outer loop
      vertex 112 -48.2 -0.9
      vertex 112 -47.2 0.9
      vertex 112 -48.2 -0.889999
    endloop
  endfacet
  facet normal 1 0 0
    outer loop
      vertex 112 -47.2 0.9
      vertex 112 -48.2 -0.9
      vertex 112 48.2 -0.9
    endloop
  endfacet
  facet normal 0 0 -1
    outer loop
      vertex 3 -33 -0.9
      vertex 34.64 32.6 -0.9
      vertex 34.64 -33 -0.9
    endloop
  endfacet
  facet normal -0 0 -1
    outer loop
      vertex 34.64 32.6 -0.9
      vertex 3 -33 -0.9
      vertex 3 32.6 -0.9
    endloop
  endfacet
  facet normal 0 0 -1
    outer loop
      vertex 37.04 -33 -0.9
      vertex 72.72 32.6 -0.9
      vertex 72.72 -33 -0.9
    endloop
  endfacet
  facet normal -0 0 -1
    outer loop
      vertex 72.72 32.6 -0.9
      vertex 37.04 -33 -0.9
      vertex 37.04 32.6 -0.9
    endloop
  endfacet
  facet normal 0 0 -1
    outer loop
      vertex 75.12 -33 -0.9
      vertex 109 32.6 -0.9
      vertex 109 -33 -0.9
    endloop
  endfacet
  facet normal -0 0 -1
    outer loop
      vertex 109 32.6 -0.9
      vertex 75.12 -33 -0.9
      vertex 75.12 32.6 -0.9
    endloop
  endfacet
  facet normal 0 0 -1
    outer loop
      vertex 109 -33 -0.9
      vertex 112 -48.2 -0.9
      vertex 109 -45.2 -0.9
    endloop
  endfacet
  facet normal 0 0 -1
    outer loop
      vertex 112 -48.2 -0.9
      vertex 75.12 -45.2 -0.9
      vertex 109 -45.2 -0.9
    endloop
  endfacet
  facet normal 0 0 -1
    outer loop
      vertex 72.72 -33 -0.9
      vertex 75.12 -33 -0.9
      vertex 75.12 -45.2 -0.9
    endloop
  endfacet
  facet normal 0 0 -1
    outer loop
      vertex 75.12 -33 -0.9
      vertex 72.72 -33 -0.9
      vertex 75.12 32.6 -0.9
    endloop
  endfacet
  facet normal 0 0 -1
    outer loop
      vertex 72.72 -33 -0.9
      vertex 75.12 -45.2 -0.9
      vertex 72.72 -45.2 -0.9
    endloop
  endfacet
  facet normal 0 0 -1
    outer loop
      vertex 112 -48.2 -0.9
      vertex 72.72 -45.2 -0.9
      vertex 75.12 -45.2 -0.9
    endloop
  endfacet
  facet normal 0 0 -1
    outer loop
      vertex 112 -48.2 -0.9
      vertex 37.04 -45.2 -0.9
      vertex 72.72 -45.2 -0.9
    endloop
  endfacet
  facet normal 0 0 -1
    outer loop
      vertex 34.64 -33 -0.9
      vertex 37.04 -33 -0.9
      vertex 37.04 -45.2 -0.9
    endloop
  endfacet
  facet normal 0 0 -1
    outer loop
      vertex 37.04 -33 -0.9
      vertex 34.64 -33 -0.9
      vertex 37.04 32.6 -0.9
    endloop
  endfacet
  facet normal 0 0 -1
    outer loop
      vertex 34.64 -33 -0.9
      vertex 37.04 -45.2 -0.9
      vertex 34.64 -45.2 -0.9
    endloop
  endfacet
  facet normal 0 0 -1
    outer loop
      vertex 0 -48.2 -0.9
      vertex 37.04 -45.2 -0.9
      vertex 112 -48.2 -0.9
    endloop
  endfacet
  facet normal -0 0 -1
    outer loop
      vertex 37.04 -45.2 -0.9
      vertex 0 -48.2 -0.9
      vertex 34.64 -45.2 -0.9
    endloop
  endfacet
  facet normal 0 0 -1
    outer loop
      vertex 0 -48.2 -0.9
      vertex 3 -33 -0.9
      vertex 3 -45.2 -0.9
    endloop
  endfacet
  facet normal -0 0 -1
    outer loop
      vertex 3 -33 -0.9
      vertex 0 -48.2 -0.9
      vertex 3 32.6 -0.9
    endloop
  endfacet
  facet normal 0 0 -1
    outer loop
      vertex 0 48.2 -0.9
      vertex 3 32.6 -0.9
      vertex 0 -48.2 -0.9
    endloop
  endfacet
  facet normal -0 0 -1
    outer loop
      vertex 34.64 -45.2 -0.9
      vertex 0 -48.2 -0.9
      vertex 3 -45.2 -0.9
    endloop
  endfacet
  facet normal 0 0 -1
    outer loop
      vertex 112 -48.2 -0.9
      vertex 109 -33 -0.9
      vertex 112 48.2 -0.9
    endloop
  endfacet
  facet normal 0 0 -1
    outer loop
      vertex 109 32.6 -0.9
      vertex 112 48.2 -0.9
      vertex 109 -33 -0.9
    endloop
  endfacet
  facet normal 0 0 -1
    outer loop
      vertex 109 45.2 -0.9
      vertex 112 48.2 -0.9
      vertex 109 32.6 -0.9
    endloop
  endfacet
  facet normal 0 0 -1
    outer loop
      vertex 75.12 45.2 -0.9
      vertex 112 48.2 -0.9
      vertex 109 45.2 -0.9
    endloop
  endfacet
  facet normal 0 0 -1
    outer loop
      vertex 72.72 32.6 -0.9
      vertex 75.12 32.6 -0.9
      vertex 72.72 -33 -0.9
    endloop
  endfacet
  facet normal 0 0 -1
    outer loop
      vertex 75.12 32.6 -0.9
      vertex 72.72 32.6 -0.9
      vertex 75.12 45.2 -0.9
    endloop
  endfacet
  facet normal 0 0 -1
    outer loop
      vertex 72.72 45.2 -0.9
      vertex 75.12 45.2 -0.9
      vertex 72.72 32.6 -0.9
    endloop
  endfacet
  facet normal 0 0 -1
    outer loop
      vertex 72.72 45.2 -0.9
      vertex 112 48.2 -0.9
      vertex 75.12 45.2 -0.9
    endloop
  endfacet
  facet normal 0 0 -1
    outer loop
      vertex 37.04 45.2 -0.9
      vertex 112 48.2 -0.9
      vertex 72.72 45.2 -0.9
    endloop
  endfacet
  facet normal 0 0 -1
    outer loop
      vertex 34.64 32.6 -0.9
      vertex 37.04 32.6 -0.9
      vertex 34.64 -33 -0.9
    endloop
  endfacet
  facet normal 0 0 -1
    outer loop
      vertex 37.04 32.6 -0.9
      vertex 34.64 32.6 -0.9
      vertex 37.04 45.2 -0.9
    endloop
  endfacet
  facet normal 0 0 -1
    outer loop
      vertex 34.64 45.2 -0.9
      vertex 37.04 45.2 -0.9
      vertex 34.64 32.6 -0.9
    endloop
  endfacet
  facet normal 0 0 -1
    outer loop
      vertex 0 48.2 -0.9
      vertex 37.04 45.2 -0.9
      vertex 34.64 45.2 -0.9
    endloop
  endfacet
  facet normal 0 0 -1
    outer loop
      vertex 0 48.2 -0.9
      vertex 34.64 45.2 -0.9
      vertex 3 45.2 -0.9
    endloop
  endfacet
  facet normal 0 0 -1
    outer loop
      vertex 37.04 45.2 -0.9
      vertex 0 48.2 -0.9
      vertex 112 48.2 -0.9
    endloop
  endfacet
  facet normal 0 0 -1
    outer loop
      vertex 3 32.6 -0.9
      vertex 0 48.2 -0.9
      vertex 3 45.2 -0.9
    endloop
  endfacet
  facet normal 0 -0.873004 0.487712
    outer loop
      vertex 0 -48.2 -0.889999
      vertex 112 -47.2 0.9
      vertex 0 -47.2 0.9
    endloop
  endfacet
  facet normal 0 -0.873004 0.487712
    outer loop
      vertex 112 -47.2 0.9
      vertex 0 -48.2 -0.889999
      vertex 112 -48.2 -0.889999
    endloop
  endfacet
endsolid OpenSCAD_Model
