solid OpenSCAD_Model
  facet normal 0 -1 0
    outer loop
      vertex -10 49 1.00001
      vertex 10 49 2.14999
      vertex -10 49 2.14999
    endloop
  endfacet
  facet normal 0 -1 -0
    outer loop
      vertex 10 49 2.14999
      vertex -10 49 1.00001
      vertex 10 49 1.00001
    endloop
  endfacet
  facet normal 0 1 -0
    outer loop
      vertex 10 -49 1.00001
      vertex -10 -49 2.14999
      vertex 10 -49 2.14999
    endloop
  endfacet
  facet normal 0 1 0
    outer loop
      vertex -10 -49 2.14999
      vertex 10 -49 1.00001
      vertex -10 -49 1.00001
    endloop
  endfacet
  facet normal 0 0.707107 -0.707107
    outer loop
      vertex 10 -49 2.14999
      vertex -10 -47.01 4.13999
      vertex 10 -47.01 4.13999
    endloop
  endfacet
  facet normal 0 0.707107 -0.707107
    outer loop
      vertex -10 -47.01 4.13999
      vertex 10 -49 2.14999
      vertex -10 -49 2.14999
    endloop
  endfacet
  facet normal 0 -0.707107 -0.707107
    outer loop
      vertex -10 49 2.14999
      vertex 10 47.01 4.13999
      vertex -10 47.01 4.13999
    endloop
  endfacet
  facet normal 0 -0.707107 -0.707107
    outer loop
      vertex 10 47.01 4.13999
      vertex -10 49 2.14999
      vertex 10 49 2.14999
    endloop
  endfacet
  facet normal 0 -1 0
    outer loop
      vertex -10 49 4.13999
      vertex 10 49 4.94999
      vertex -10 49 4.94999
    endloop
  endfacet
  facet normal 0 -1 -0
    outer loop
      vertex 10 49 4.94999
      vertex -10 49 4.13999
      vertex 10 49 4.13999
    endloop
  endfacet
  facet normal 0 1 -0
    outer loop
      vertex 10 -49 4.13999
      vertex -10 -49 4.94999
      vertex 10 -49 4.94999
    endloop
  endfacet
  facet normal 0 1 0
    outer loop
      vertex -10 -49 4.94999
      vertex 10 -49 4.13999
      vertex -10 -49 4.13999
    endloop
  endfacet
  facet normal 0 0.707109 -0.707105
    outer loop
      vertex 10 -49 4.94999
      vertex -10 -47.01 6.94
      vertex 10 -47.01 6.94
    endloop
  endfacet
  facet normal 0 0.707109 -0.707105
    outer loop
      vertex -10 -47.01 6.94
      vertex 10 -49 4.94999
      vertex -10 -49 4.94999
    endloop
  endfacet
  facet normal -0 0 1
    outer loop
      vertex -10 -47.01 4.13999
      vertex 10 -49 4.13999
      vertex 10 -47.01 4.13999
    endloop
  endfacet
  facet normal 0 0 1
    outer loop
      vertex 10 -49 4.13999
      vertex -10 -47.01 4.13999
      vertex -10 -49 4.13999
    endloop
  endfacet
  facet normal -0 0 1
    outer loop
      vertex -10 49 4.13999
      vertex 10 47.01 4.13999
      vertex 10 49 4.13999
    endloop
  endfacet
  facet normal 0 0 1
    outer loop
      vertex 10 47.01 4.13999
      vertex -10 49 4.13999
      vertex -10 47.01 4.13999
    endloop
  endfacet
  facet normal 0 -0.707109 -0.707105
    outer loop
      vertex -10 49 4.94999
      vertex 10 47.01 6.94
      vertex -10 47.01 6.94
    endloop
  endfacet
  facet normal 0 -0.707109 -0.707105
    outer loop
      vertex 10 47.01 6.94
      vertex -10 49 4.94999
      vertex 10 49 4.94999
    endloop
  endfacet
  facet normal 0 -1 0
    outer loop
      vertex -10 49 6.94
      vertex 10 49 7.74999
      vertex -10 49 7.74999
    endloop
  endfacet
  facet normal 0 -1 -0
    outer loop
      vertex 10 49 7.74999
      vertex -10 49 6.94
      vertex 10 49 6.94
    endloop
  endfacet
  facet normal 0 1 -0
    outer loop
      vertex 10 -49 6.94
      vertex -10 -49 7.74999
      vertex 10 -49 7.74999
    endloop
  endfacet
  facet normal 0 1 0
    outer loop
      vertex -10 -49 7.74999
      vertex 10 -49 6.94
      vertex -10 -49 6.94
    endloop
  endfacet
  facet normal 0 0.707107 -0.707107
    outer loop
      vertex 10 -49 7.74999
      vertex -10 -47 9.74999
      vertex 10 -47 9.74999
    endloop
  endfacet
  facet normal 0 0.707107 -0.707107
    outer loop
      vertex -10 -47 9.74999
      vertex 10 -49 7.74999
      vertex -10 -49 7.74999
    endloop
  endfacet
  facet normal -0 0 1
    outer loop
      vertex -10 49 6.94
      vertex 10 47.01 6.94
      vertex 10 49 6.94
    endloop
  endfacet
  facet normal 0 0 1
    outer loop
      vertex 10 47.01 6.94
      vertex -10 49 6.94
      vertex -10 47.01 6.94
    endloop
  endfacet
  facet normal -0 0 1
    outer loop
      vertex -10 -47.01 6.94
      vertex 10 -49 6.94
      vertex 10 -47.01 6.94
    endloop
  endfacet
  facet normal 0 0 1
    outer loop
      vertex 10 -49 6.94
      vertex -10 -47.01 6.94
      vertex -10 -49 6.94
    endloop
  endfacet
  facet normal 0 0 -1
    outer loop
      vertex -10 -47 9.74999
      vertex 10 47 9.74999
      vertex 10 -47 9.74999
    endloop
  endfacet
  facet normal -0 0 -1
    outer loop
      vertex 10 47 9.74999
      vertex -10 -47 9.74999
      vertex -10 47 9.74999
    endloop
  endfacet
  facet normal 0 -0.707107 -0.707107
    outer loop
      vertex -10 49 7.74999
      vertex 10 47 9.74999
      vertex -10 47 9.74999
    endloop
  endfacet
  facet normal 0 -0.707107 -0.707107
    outer loop
      vertex 10 47 9.74999
      vertex -10 49 7.74999
      vertex 10 49 7.74999
    endloop
  endfacet
  facet normal -0 0 1
    outer loop
      vertex -10 54 9.75
      vertex 10 -54 9.75
      vertex 10 54 9.75
    endloop
  endfacet
  facet normal 0 0 1
    outer loop
      vertex 10 -54 9.75
      vertex -10 54 9.75
      vertex -10 -54 9.75
    endloop
  endfacet
  facet normal 0 1 -0
    outer loop
      vertex 10 54 -3.8147e-07
      vertex -10 54 9.75
      vertex 10 54 9.75
    endloop
  endfacet
  facet normal 0 1 0
    outer loop
      vertex -10 54 9.75
      vertex 10 54 -3.8147e-07
      vertex -10 54 -3.8147e-07
    endloop
  endfacet
  facet normal 0 -1 0
    outer loop
      vertex -10 -54 -3.8147e-07
      vertex 10 -54 9.75
      vertex -10 -54 9.75
    endloop
  endfacet
  facet normal 0 -1 -0
    outer loop
      vertex 10 -54 9.75
      vertex -10 -54 -3.8147e-07
      vertex 10 -54 -3.8147e-07
    endloop
  endfacet
  facet normal -0 0 1
    outer loop
      vertex -10 49 1.00001
      vertex 10 -49 1.00001
      vertex 10 49 1.00001
    endloop
  endfacet
  facet normal 0 0 1
    outer loop
      vertex 10 -49 1.00001
      vertex -10 49 1.00001
      vertex -10 -49 1.00001
    endloop
  endfacet
  facet normal 1 0 0
    outer loop
      vertex 10 49 4.13999
      vertex 10 47.01 4.13999
      vertex 10 49 2.14999
    endloop
  endfacet
  facet normal 1 0 0
    outer loop
      vertex 10 49 6.94
      vertex 10 47.01 6.94
      vertex 10 49 4.94999
    endloop
  endfacet
  facet normal 1 0 0
    outer loop
      vertex 10 49 6.94
      vertex 10 54 9.75
      vertex 10 49 7.74999
    endloop
  endfacet
  facet normal 1 0 0
    outer loop
      vertex 10 54 9.75
      vertex 10 47 9.74999
      vertex 10 49 7.74999
    endloop
  endfacet
  facet normal 1 0 0
    outer loop
      vertex 10 54 9.75
      vertex 10 -47 9.74999
      vertex 10 47 9.74999
    endloop
  endfacet
  facet normal 1 0 0
    outer loop
      vertex 10 -54 9.75
      vertex 10 -49 6.94
      vertex 10 -49 7.74999
    endloop
  endfacet
  facet normal 1 0 0
    outer loop
      vertex 10 -49 6.94
      vertex 10 -54 9.75
      vertex 10 -49 4.94999
    endloop
  endfacet
  facet normal 1 0 0
    outer loop
      vertex 10 -54 -3.8147e-07
      vertex 10 -49 4.94999
      vertex 10 -54 9.75
    endloop
  endfacet
  facet normal 1 0 0
    outer loop
      vertex 10 -49 4.94999
      vertex 10 -54 -3.8147e-07
      vertex 10 -49 4.13999
    endloop
  endfacet
  facet normal 1 0 0
    outer loop
      vertex 10 -49 4.13999
      vertex 10 -54 -3.8147e-07
      vertex 10 -49 2.14999
    endloop
  endfacet
  facet normal 1 0 0
    outer loop
      vertex 10 -47 9.74999
      vertex 10 -54 9.75
      vertex 10 -49 7.74999
    endloop
  endfacet
  facet normal 1 -0 0
    outer loop
      vertex 10 -54 9.75
      vertex 10 -47 9.74999
      vertex 10 54 9.75
    endloop
  endfacet
  facet normal 1 0 0
    outer loop
      vertex 10 49 4.94999
      vertex 10 54 9.75
      vertex 10 49 6.94
    endloop
  endfacet
  facet normal 1 0 0
    outer loop
      vertex 10 54 9.75
      vertex 10 49 4.94999
      vertex 10 54 -3.8147e-07
    endloop
  endfacet
  facet normal 1 -0 0
    outer loop
      vertex 10 49 4.13999
      vertex 10 54 -3.8147e-07
      vertex 10 49 4.94999
    endloop
  endfacet
  facet normal 1 -0 0
    outer loop
      vertex 10 49 2.14999
      vertex 10 54 -3.8147e-07
      vertex 10 49 4.13999
    endloop
  endfacet
  facet normal 1 -0 0
    outer loop
      vertex 10 49 1.00001
      vertex 10 54 -3.8147e-07
      vertex 10 49 2.14999
    endloop
  endfacet
  facet normal 1 -0 0
    outer loop
      vertex 10 -49 1.00001
      vertex 10 54 -3.8147e-07
      vertex 10 49 1.00001
    endloop
  endfacet
  facet normal 1 0 0
    outer loop
      vertex 10 -49 1.00001
      vertex 10 -54 -3.8147e-07
      vertex 10 54 -3.8147e-07
    endloop
  endfacet
  facet normal 1 0 0
    outer loop
      vertex 10 -49 2.14999
      vertex 10 -54 -3.8147e-07
      vertex 10 -49 1.00001
    endloop
  endfacet
  facet normal 1 0 0
    outer loop
      vertex 10 -47.01 6.94
      vertex 10 -49 6.94
      vertex 10 -49 4.94999
    endloop
  endfacet
  facet normal 1 0 0
    outer loop
      vertex 10 -47.01 4.13999
      vertex 10 -49 4.13999
      vertex 10 -49 2.14999
    endloop
  endfacet
  facet normal -1 0 0
    outer loop
      vertex -10 49 4.94999
      vertex -10 47.01 6.94
      vertex -10 49 6.94
    endloop
  endfacet
  facet normal -1 0 0
    outer loop
      vertex -10 49 2.14999
      vertex -10 47.01 4.13999
      vertex -10 49 4.13999
    endloop
  endfacet
  facet normal -1 0 0
    outer loop
      vertex -10 49 2.14999
      vertex -10 54 -3.8147e-07
      vertex -10 49 1.00001
    endloop
  endfacet
  facet normal -1 0 0
    outer loop
      vertex -10 54 -3.8147e-07
      vertex -10 -49 1.00001
      vertex -10 49 1.00001
    endloop
  endfacet
  facet normal -1 0 0
    outer loop
      vertex -10 -54 -3.8147e-07
      vertex -10 -49 2.14999
      vertex -10 -49 1.00001
    endloop
  endfacet
  facet normal -1 -0 0
    outer loop
      vertex -10 -49 2.14999
      vertex -10 -54 -3.8147e-07
      vertex -10 -49 4.13999
    endloop
  endfacet
  facet normal -1 -0 0
    outer loop
      vertex -10 -49 4.13999
      vertex -10 -54 -3.8147e-07
      vertex -10 -49 4.94999
    endloop
  endfacet
  facet normal -1 0 0
    outer loop
      vertex -10 -54 9.75
      vertex -10 -49 4.94999
      vertex -10 -54 -3.8147e-07
    endloop
  endfacet
  facet normal -1 0 0
    outer loop
      vertex -10 -49 4.94999
      vertex -10 -54 9.75
      vertex -10 -49 6.94
    endloop
  endfacet
  facet normal -1 0 0
    outer loop
      vertex -10 -54 -3.8147e-07
      vertex -10 -49 1.00001
      vertex -10 54 -3.8147e-07
    endloop
  endfacet
  facet normal -1 0 0
    outer loop
      vertex -10 49 4.13999
      vertex -10 54 -3.8147e-07
      vertex -10 49 2.14999
    endloop
  endfacet
  facet normal -1 0 0
    outer loop
      vertex -10 49 4.94999
      vertex -10 54 -3.8147e-07
      vertex -10 49 4.13999
    endloop
  endfacet
  facet normal -1 0 0
    outer loop
      vertex -10 54 -3.8147e-07
      vertex -10 49 4.94999
      vertex -10 54 9.75
    endloop
  endfacet
  facet normal -1 0 0
    outer loop
      vertex -10 49 6.94
      vertex -10 54 9.75
      vertex -10 49 4.94999
    endloop
  endfacet
  facet normal -1 0 0
    outer loop
      vertex -10 49 7.74999
      vertex -10 54 9.75
      vertex -10 49 6.94
    endloop
  endfacet
  facet normal -1 0 0
    outer loop
      vertex -10 47 9.74999
      vertex -10 54 9.75
      vertex -10 49 7.74999
    endloop
  endfacet
  facet normal -1 0 0
    outer loop
      vertex -10 -47 9.74999
      vertex -10 54 9.75
      vertex -10 47 9.74999
    endloop
  endfacet
  facet normal -1 0 0
    outer loop
      vertex -10 -47 9.74999
      vertex -10 -54 9.75
      vertex -10 54 9.75
    endloop
  endfacet
  facet normal -1 0 0
    outer loop
      vertex -10 -49 7.74999
      vertex -10 -54 9.75
      vertex -10 -47 9.74999
    endloop
  endfacet
  facet normal -1 0 0
    outer loop
      vertex -10 -49 6.94
      vertex -10 -54 9.75
      vertex -10 -49 7.74999
    endloop
  endfacet
  facet normal -1 -0 0
    outer loop
      vertex -10 -47.01 4.13999
      vertex -10 -49 2.14999
      vertex -10 -49 4.13999
    endloop
  endfacet
  facet normal -1 -0 0
    outer loop
      vertex -10 -47.01 6.94
      vertex -10 -49 4.94999
      vertex -10 -49 6.94
    endloop
  endfacet
  facet normal 0 0 -1
    outer loop
      vertex -10 -54 -3.8147e-07
      vertex 10 54 -3.8147e-07
      vertex 10 -54 -3.8147e-07
    endloop
  endfacet
  facet normal -0 0 -1
    outer loop
      vertex 10 54 -3.8147e-07
      vertex -10 -54 -3.8147e-07
      vertex -10 54 -3.8147e-07
    endloop
  endfacet
  facet normal -1 0 0
    outer loop
      vertex 42 -34.5 3.8147e-07
      vertex 42 -4 1.8
      vertex 42 -4 3.8147e-07
    endloop
  endfacet
  facet normal -1 -0 0
    outer loop
      vertex 42 -4 1.8
      vertex 42 -34.5 3.8147e-07
      vertex 42 -34.5 1.8
    endloop
  endfacet
  facet normal 1 -0 0
    outer loop
      vertex 28 -34.5 1.8
      vertex 28 -4 3.8147e-07
      vertex 28 -4 1.8
    endloop
  endfacet
  facet normal 1 0 0
    outer loop
      vertex 28 -4 3.8147e-07
      vertex 28 -34.5 1.8
      vertex 28 -34.5 3.8147e-07
    endloop
  endfacet
  facet normal 0 -1 0
    outer loop
      vertex 28 -4 3.8147e-07
      vertex 42 -4 1.8
      vertex 28 -4 1.8
    endloop
  endfacet
  facet normal 0 -1 -0
    outer loop
      vertex 42 -4 1.8
      vertex 28 -4 3.8147e-07
      vertex 42 -4 3.8147e-07
    endloop
  endfacet
  facet normal 0 1 -0
    outer loop
      vertex 42 -34.5 3.8147e-07
      vertex 28 -34.5 1.8
      vertex 42 -34.5 1.8
    endloop
  endfacet
  facet normal 0 1 0
    outer loop
      vertex 28 -34.5 1.8
      vertex 42 -34.5 3.8147e-07
      vertex 28 -34.5 3.8147e-07
    endloop
  endfacet
  facet normal -1 0 0
    outer loop
      vertex 42 4 3.8147e-07
      vertex 42 34.5 1.8
      vertex 42 34.5 3.8147e-07
    endloop
  endfacet
  facet normal -1 -0 0
    outer loop
      vertex 42 34.5 1.8
      vertex 42 4 3.8147e-07
      vertex 42 4 1.8
    endloop
  endfacet
  facet normal 1 -0 0
    outer loop
      vertex 28 4 1.8
      vertex 28 34.5 3.8147e-07
      vertex 28 34.5 1.8
    endloop
  endfacet
  facet normal 1 0 0
    outer loop
      vertex 28 34.5 3.8147e-07
      vertex 28 4 1.8
      vertex 28 4 3.8147e-07
    endloop
  endfacet
  facet normal 0 -1 0
    outer loop
      vertex 28 34.5 3.8147e-07
      vertex 42 34.5 1.8
      vertex 28 34.5 1.8
    endloop
  endfacet
  facet normal 0 -1 -0
    outer loop
      vertex 42 34.5 1.8
      vertex 28 34.5 3.8147e-07
      vertex 42 34.5 3.8147e-07
    endloop
  endfacet
  facet normal 0 1 -0
    outer loop
      vertex 42 4 3.8147e-07
      vertex 28 4 1.8
      vertex 42 4 1.8
    endloop
  endfacet
  facet normal 0 1 0
    outer loop
      vertex 28 4 1.8
      vertex 42 4 3.8147e-07
      vertex 28 4 3.8147e-07
    endloop
  endfacet
  facet normal -0 0 1
    outer loop
      vertex 28 4 1.8
      vertex 42 -4 1.8
      vertex 42 4 1.8
    endloop
  endfacet
  facet normal 0 0 1
    outer loop
      vertex 42 -4 1.8
      vertex 28 4 1.8
      vertex 28 -4 1.8
    endloop
  endfacet
  facet normal 0 0 1
    outer loop
      vertex 42 4 1.8
      vertex 45 47.5 1.8
      vertex 42 34.5 1.8
    endloop
  endfacet
  facet normal 0 0 1
    outer loop
      vertex 45 47.5 1.8
      vertex 28 34.5 1.8
      vertex 42 34.5 1.8
    endloop
  endfacet
  facet normal 0 0 1
    outer loop
      vertex 25 47.5 1.8
      vertex 28 4 1.8
      vertex 28 34.5 1.8
    endloop
  endfacet
  facet normal 0 0 1
    outer loop
      vertex 28 4 1.8
      vertex 25 47.5 1.8
      vertex 28 -4 1.8
    endloop
  endfacet
  facet normal 0 0 1
    outer loop
      vertex 25 -47.5 1.8
      vertex 28 -4 1.8
      vertex 25 47.5 1.8
    endloop
  endfacet
  facet normal -0 0 1
    outer loop
      vertex 25 47.5 1.8
      vertex 28 34.5 1.8
      vertex 45 47.5 1.8
    endloop
  endfacet
  facet normal 0 0 1
    outer loop
      vertex 45 47.5 1.8
      vertex 42 4 1.8
      vertex 45 -47.5 1.8
    endloop
  endfacet
  facet normal -0 0 1
    outer loop
      vertex 42 -4 1.8
      vertex 45 -47.5 1.8
      vertex 42 4 1.8
    endloop
  endfacet
  facet normal -0 0 1
    outer loop
      vertex 42 -34.5 1.8
      vertex 45 -47.5 1.8
      vertex 42 -4 1.8
    endloop
  endfacet
  facet normal -0 0 1
    outer loop
      vertex 28 -34.5 1.8
      vertex 45 -47.5 1.8
      vertex 42 -34.5 1.8
    endloop
  endfacet
  facet normal 0 0 1
    outer loop
      vertex 28 -34.5 1.8
      vertex 25 -47.5 1.8
      vertex 45 -47.5 1.8
    endloop
  endfacet
  facet normal 0 0 1
    outer loop
      vertex 28 -4 1.8
      vertex 25 -47.5 1.8
      vertex 28 -34.5 1.8
    endloop
  endfacet
  facet normal 0 0.702646 -0.711539
    outer loop
      vertex 25 48.1 3.8147e-07
      vertex 45 48.5 0.395001
      vertex 45 48.1 3.8147e-07
    endloop
  endfacet
  facet normal 0 0.702646 -0.711539
    outer loop
      vertex 45 48.5 0.395001
      vertex 25 48.1 3.8147e-07
      vertex 25 48.5 0.395001
    endloop
  endfacet
  facet normal 0 0 -1
    outer loop
      vertex 28 -4 3.8147e-07
      vertex 42 4 3.8147e-07
      vertex 42 -4 3.8147e-07
    endloop
  endfacet
  facet normal -0 0 -1
    outer loop
      vertex 42 4 3.8147e-07
      vertex 28 -4 3.8147e-07
      vertex 28 4 3.8147e-07
    endloop
  endfacet
  facet normal 0 0 -1
    outer loop
      vertex 42 -4 3.8147e-07
      vertex 45 -48.1 3.8147e-07
      vertex 42 -34.5 3.8147e-07
    endloop
  endfacet
  facet normal 0 0 -1
    outer loop
      vertex 45 -48.1 3.8147e-07
      vertex 28 -34.5 3.8147e-07
      vertex 42 -34.5 3.8147e-07
    endloop
  endfacet
  facet normal 0 0 -1
    outer loop
      vertex 25 -48.1 3.8147e-07
      vertex 28 -4 3.8147e-07
      vertex 28 -34.5 3.8147e-07
    endloop
  endfacet
  facet normal -0 0 -1
    outer loop
      vertex 28 -4 3.8147e-07
      vertex 25 -48.1 3.8147e-07
      vertex 28 4 3.8147e-07
    endloop
  endfacet
  facet normal 0 0 -1
    outer loop
      vertex 25 48.1 3.8147e-07
      vertex 28 4 3.8147e-07
      vertex 25 -48.1 3.8147e-07
    endloop
  endfacet
  facet normal 0 0 -1
    outer loop
      vertex 25 -48.1 3.8147e-07
      vertex 28 -34.5 3.8147e-07
      vertex 45 -48.1 3.8147e-07
    endloop
  endfacet
  facet normal 0 0 -1
    outer loop
      vertex 45 -48.1 3.8147e-07
      vertex 42 -4 3.8147e-07
      vertex 45 48.1 3.8147e-07
    endloop
  endfacet
  facet normal 0 0 -1
    outer loop
      vertex 42 4 3.8147e-07
      vertex 45 48.1 3.8147e-07
      vertex 42 -4 3.8147e-07
    endloop
  endfacet
  facet normal 0 0 -1
    outer loop
      vertex 42 34.5 3.8147e-07
      vertex 45 48.1 3.8147e-07
      vertex 42 4 3.8147e-07
    endloop
  endfacet
  facet normal 0 0 -1
    outer loop
      vertex 28 34.5 3.8147e-07
      vertex 45 48.1 3.8147e-07
      vertex 42 34.5 3.8147e-07
    endloop
  endfacet
  facet normal 0 0 -1
    outer loop
      vertex 28 34.5 3.8147e-07
      vertex 25 48.1 3.8147e-07
      vertex 45 48.1 3.8147e-07
    endloop
  endfacet
  facet normal 0 0 -1
    outer loop
      vertex 28 4 3.8147e-07
      vertex 25 48.1 3.8147e-07
      vertex 28 34.5 3.8147e-07
    endloop
  endfacet
  facet normal 0 1 -0
    outer loop
      vertex 45 48.5 0.395001
      vertex 25 48.5 0.405
      vertex 45 48.5 0.405
    endloop
  endfacet
  facet normal 0 1 0
    outer loop
      vertex 25 48.5 0.405
      vertex 45 48.5 0.395001
      vertex 25 48.5 0.395001
    endloop
  endfacet
  facet normal 0 -1 0
    outer loop
      vertex 25 -48.5 0.395001
      vertex 45 -48.5 0.405
      vertex 25 -48.5 0.405
    endloop
  endfacet
  facet normal 0 -1 -0
    outer loop
      vertex 45 -48.5 0.405
      vertex 25 -48.5 0.395001
      vertex 45 -48.5 0.395001
    endloop
  endfacet
  facet normal 0 -0.702646 -0.711539
    outer loop
      vertex 25 -48.5 0.395001
      vertex 45 -48.1 3.8147e-07
      vertex 45 -48.5 0.395001
    endloop
  endfacet
  facet normal -0 -0.702646 -0.711539
    outer loop
      vertex 45 -48.1 3.8147e-07
      vertex 25 -48.5 0.395001
      vertex 25 -48.1 3.8147e-07
    endloop
  endfacet
  facet normal 0 -0.812748 0.582615
    outer loop
      vertex 25 -48.5 0.405
      vertex 45 -47.5 1.8
      vertex 25 -47.5 1.8
    endloop
  endfacet
  facet normal 0 -0.812748 0.582615
    outer loop
      vertex 45 -47.5 1.8
      vertex 25 -48.5 0.405
      vertex 45 -48.5 0.405
    endloop
  endfacet
  facet normal 1 0 0
    outer loop
      vertex 45 48.5 0.405
      vertex 45 48.1 3.8147e-07
      vertex 45 48.5 0.395001
    endloop
  endfacet
  facet normal 1 0 0
    outer loop
      vertex 45 47.5 1.8
      vertex 45 48.1 3.8147e-07
      vertex 45 48.5 0.405
    endloop
  endfacet
  facet normal 1 -0 0
    outer loop
      vertex 45 -47.5 1.8
      vertex 45 48.1 3.8147e-07
      vertex 45 47.5 1.8
    endloop
  endfacet
  facet normal 1 0 0
    outer loop
      vertex 45 -47.5 1.8
      vertex 45 -48.1 3.8147e-07
      vertex 45 48.1 3.8147e-07
    endloop
  endfacet
  facet normal 1 -0 0
    outer loop
      vertex 45 -48.5 0.405
      vertex 45 -48.1 3.8147e-07
      vertex 45 -47.5 1.8
    endloop
  endfacet
  facet normal 1 0 0
    outer loop
      vertex 45 -48.1 3.8147e-07
      vertex 45 -48.5 0.405
      vertex 45 -48.5 0.395001
    endloop
  endfacet
  facet normal 0 0.812748 0.582615
    outer loop
      vertex 45 48.5 0.405
      vertex 25 47.5 1.8
      vertex 45 47.5 1.8
    endloop
  endfacet
  facet normal 0 0.812748 0.582615
    outer loop
      vertex 25 47.5 1.8
      vertex 45 48.5 0.405
      vertex 25 48.5 0.405
    endloop
  endfacet
  facet normal -1 0 0
    outer loop
      vertex 25 48.1 3.8147e-07
      vertex 25 48.5 0.405
      vertex 25 48.5 0.395001
    endloop
  endfacet
  facet normal -1 0 0
    outer loop
      vertex 25 48.1 3.8147e-07
      vertex 25 47.5 1.8
      vertex 25 48.5 0.405
    endloop
  endfacet
  facet normal -1 0 0
    outer loop
      vertex 25 48.1 3.8147e-07
      vertex 25 -47.5 1.8
      vertex 25 47.5 1.8
    endloop
  endfacet
  facet normal -1 0 0
    outer loop
      vertex 25 -48.1 3.8147e-07
      vertex 25 -47.5 1.8
      vertex 25 48.1 3.8147e-07
    endloop
  endfacet
  facet normal -1 0 0
    outer loop
      vertex 25 -48.5 0.405
      vertex 25 -48.1 3.8147e-07
      vertex 25 -48.5 0.395001
    endloop
  endfacet
  facet normal -1 0 0
    outer loop
      vertex 25 -48.1 3.8147e-07
      vertex 25 -48.5 0.405
      vertex 25 -47.5 1.8
    endloop
  endfacet
  facet normal -1 0 0
    outer loop
      vertex 77 -34.5 3.8147e-07
      vertex 77 -4 1.8
      vertex 77 -4 3.8147e-07
    endloop
  endfacet
  facet normal -1 -0 0
    outer loop
      vertex 77 -4 1.8
      vertex 77 -34.5 3.8147e-07
      vertex 77 -34.5 1.8
    endloop
  endfacet
  facet normal 1 -0 0
    outer loop
      vertex 63 -34.5 1.8
      vertex 63 -4 3.8147e-07
      vertex 63 -4 1.8
    endloop
  endfacet
  facet normal 1 0 0
    outer loop
      vertex 63 -4 3.8147e-07
      vertex 63 -34.5 1.8
      vertex 63 -34.5 3.8147e-07
    endloop
  endfacet
  facet normal 0 -1 0
    outer loop
      vertex 63 -4 3.8147e-07
      vertex 77 -4 1.8
      vertex 63 -4 1.8
    endloop
  endfacet
  facet normal 0 -1 -0
    outer loop
      vertex 77 -4 1.8
      vertex 63 -4 3.8147e-07
      vertex 77 -4 3.8147e-07
    endloop
  endfacet
  facet normal 0 1 -0
    outer loop
      vertex 77 -34.5 3.8147e-07
      vertex 63 -34.5 1.8
      vertex 77 -34.5 1.8
    endloop
  endfacet
  facet normal 0 1 0
    outer loop
      vertex 63 -34.5 1.8
      vertex 77 -34.5 3.8147e-07
      vertex 63 -34.5 3.8147e-07
    endloop
  endfacet
  facet normal -1 0 0
    outer loop
      vertex 77 4 3.8147e-07
      vertex 77 34.5 1.8
      vertex 77 34.5 3.8147e-07
    endloop
  endfacet
  facet normal -1 -0 0
    outer loop
      vertex 77 34.5 1.8
      vertex 77 4 3.8147e-07
      vertex 77 4 1.8
    endloop
  endfacet
  facet normal 1 -0 0
    outer loop
      vertex 63 4 1.8
      vertex 63 34.5 3.8147e-07
      vertex 63 34.5 1.8
    endloop
  endfacet
  facet normal 1 0 0
    outer loop
      vertex 63 34.5 3.8147e-07
      vertex 63 4 1.8
      vertex 63 4 3.8147e-07
    endloop
  endfacet
  facet normal 0 -1 0
    outer loop
      vertex 63 34.5 3.8147e-07
      vertex 77 34.5 1.8
      vertex 63 34.5 1.8
    endloop
  endfacet
  facet normal 0 -1 -0
    outer loop
      vertex 77 34.5 1.8
      vertex 63 34.5 3.8147e-07
      vertex 77 34.5 3.8147e-07
    endloop
  endfacet
  facet normal 0 1 -0
    outer loop
      vertex 77 4 3.8147e-07
      vertex 63 4 1.8
      vertex 77 4 1.8
    endloop
  endfacet
  facet normal 0 1 0
    outer loop
      vertex 63 4 1.8
      vertex 77 4 3.8147e-07
      vertex 63 4 3.8147e-07
    endloop
  endfacet
  facet normal -0 0 1
    outer loop
      vertex 63 4 1.8
      vertex 77 -4 1.8
      vertex 77 4 1.8
    endloop
  endfacet
  facet normal 0 0 1
    outer loop
      vertex 77 -4 1.8
      vertex 63 4 1.8
      vertex 63 -4 1.8
    endloop
  endfacet
  facet normal 0 0 1
    outer loop
      vertex 77 4 1.8
      vertex 80 47.5 1.8
      vertex 77 34.5 1.8
    endloop
  endfacet
  facet normal 0 0 1
    outer loop
      vertex 80 47.5 1.8
      vertex 63 34.5 1.8
      vertex 77 34.5 1.8
    endloop
  endfacet
  facet normal 0 0 1
    outer loop
      vertex 60 47.5 1.8
      vertex 63 4 1.8
      vertex 63 34.5 1.8
    endloop
  endfacet
  facet normal 0 0 1
    outer loop
      vertex 63 4 1.8
      vertex 60 47.5 1.8
      vertex 63 -4 1.8
    endloop
  endfacet
  facet normal 0 0 1
    outer loop
      vertex 60 -47.5 1.8
      vertex 63 -4 1.8
      vertex 60 47.5 1.8
    endloop
  endfacet
  facet normal -0 0 1
    outer loop
      vertex 60 47.5 1.8
      vertex 63 34.5 1.8
      vertex 80 47.5 1.8
    endloop
  endfacet
  facet normal 0 0 1
    outer loop
      vertex 80 47.5 1.8
      vertex 77 4 1.8
      vertex 80 -47.5 1.8
    endloop
  endfacet
  facet normal -0 0 1
    outer loop
      vertex 77 -4 1.8
      vertex 80 -47.5 1.8
      vertex 77 4 1.8
    endloop
  endfacet
  facet normal -0 0 1
    outer loop
      vertex 77 -34.5 1.8
      vertex 80 -47.5 1.8
      vertex 77 -4 1.8
    endloop
  endfacet
  facet normal -0 0 1
    outer loop
      vertex 63 -34.5 1.8
      vertex 80 -47.5 1.8
      vertex 77 -34.5 1.8
    endloop
  endfacet
  facet normal 0 0 1
    outer loop
      vertex 63 -34.5 1.8
      vertex 60 -47.5 1.8
      vertex 80 -47.5 1.8
    endloop
  endfacet
  facet normal 0 0 1
    outer loop
      vertex 63 -4 1.8
      vertex 60 -47.5 1.8
      vertex 63 -34.5 1.8
    endloop
  endfacet
  facet normal 0 0.702646 -0.711539
    outer loop
      vertex 60 48.1 3.8147e-07
      vertex 80 48.5 0.395001
      vertex 80 48.1 3.8147e-07
    endloop
  endfacet
  facet normal 0 0.702646 -0.711539
    outer loop
      vertex 80 48.5 0.395001
      vertex 60 48.1 3.8147e-07
      vertex 60 48.5 0.395001
    endloop
  endfacet
  facet normal 0 0 -1
    outer loop
      vertex 63 -4 3.8147e-07
      vertex 77 4 3.8147e-07
      vertex 77 -4 3.8147e-07
    endloop
  endfacet
  facet normal -0 0 -1
    outer loop
      vertex 77 4 3.8147e-07
      vertex 63 -4 3.8147e-07
      vertex 63 4 3.8147e-07
    endloop
  endfacet
  facet normal 0 0 -1
    outer loop
      vertex 77 -4 3.8147e-07
      vertex 80 -48.1 3.8147e-07
      vertex 77 -34.5 3.8147e-07
    endloop
  endfacet
  facet normal 0 0 -1
    outer loop
      vertex 80 -48.1 3.8147e-07
      vertex 63 -34.5 3.8147e-07
      vertex 77 -34.5 3.8147e-07
    endloop
  endfacet
  facet normal 0 0 -1
    outer loop
      vertex 60 -48.1 3.8147e-07
      vertex 63 -4 3.8147e-07
      vertex 63 -34.5 3.8147e-07
    endloop
  endfacet
  facet normal -0 0 -1
    outer loop
      vertex 63 -4 3.8147e-07
      vertex 60 -48.1 3.8147e-07
      vertex 63 4 3.8147e-07
    endloop
  endfacet
  facet normal 0 0 -1
    outer loop
      vertex 60 48.1 3.8147e-07
      vertex 63 4 3.8147e-07
      vertex 60 -48.1 3.8147e-07
    endloop
  endfacet
  facet normal 0 0 -1
    outer loop
      vertex 60 -48.1 3.8147e-07
      vertex 63 -34.5 3.8147e-07
      vertex 80 -48.1 3.8147e-07
    endloop
  endfacet
  facet normal 0 0 -1
    outer loop
      vertex 80 -48.1 3.8147e-07
      vertex 77 -4 3.8147e-07
      vertex 80 48.1 3.8147e-07
    endloop
  endfacet
  facet normal 0 0 -1
    outer loop
      vertex 77 4 3.8147e-07
      vertex 80 48.1 3.8147e-07
      vertex 77 -4 3.8147e-07
    endloop
  endfacet
  facet normal 0 0 -1
    outer loop
      vertex 77 34.5 3.8147e-07
      vertex 80 48.1 3.8147e-07
      vertex 77 4 3.8147e-07
    endloop
  endfacet
  facet normal 0 0 -1
    outer loop
      vertex 63 34.5 3.8147e-07
      vertex 80 48.1 3.8147e-07
      vertex 77 34.5 3.8147e-07
    endloop
  endfacet
  facet normal 0 0 -1
    outer loop
      vertex 63 34.5 3.8147e-07
      vertex 60 48.1 3.8147e-07
      vertex 80 48.1 3.8147e-07
    endloop
  endfacet
  facet normal 0 0 -1
    outer loop
      vertex 63 4 3.8147e-07
      vertex 60 48.1 3.8147e-07
      vertex 63 34.5 3.8147e-07
    endloop
  endfacet
  facet normal 0 1 -0
    outer loop
      vertex 80 48.5 0.395001
      vertex 60 48.5 0.405
      vertex 80 48.5 0.405
    endloop
  endfacet
  facet normal 0 1 0
    outer loop
      vertex 60 48.5 0.405
      vertex 80 48.5 0.395001
      vertex 60 48.5 0.395001
    endloop
  endfacet
  facet normal 0 -1 0
    outer loop
      vertex 60 -48.5 0.395001
      vertex 80 -48.5 0.405
      vertex 60 -48.5 0.405
    endloop
  endfacet
  facet normal 0 -1 -0
    outer loop
      vertex 80 -48.5 0.405
      vertex 60 -48.5 0.395001
      vertex 80 -48.5 0.395001
    endloop
  endfacet
  facet normal 0 -0.702646 -0.711539
    outer loop
      vertex 60 -48.5 0.395001
      vertex 80 -48.1 3.8147e-07
      vertex 80 -48.5 0.395001
    endloop
  endfacet
  facet normal -0 -0.702646 -0.711539
    outer loop
      vertex 80 -48.1 3.8147e-07
      vertex 60 -48.5 0.395001
      vertex 60 -48.1 3.8147e-07
    endloop
  endfacet
  facet normal 0 -0.812748 0.582615
    outer loop
      vertex 60 -48.5 0.405
      vertex 80 -47.5 1.8
      vertex 60 -47.5 1.8
    endloop
  endfacet
  facet normal 0 -0.812748 0.582615
    outer loop
      vertex 80 -47.5 1.8
      vertex 60 -48.5 0.405
      vertex 80 -48.5 0.405
    endloop
  endfacet
  facet normal 1 0 0
    outer loop
      vertex 80 48.5 0.405
      vertex 80 48.1 3.8147e-07
      vertex 80 48.5 0.395001
    endloop
  endfacet
  facet normal 1 0 0
    outer loop
      vertex 80 47.5 1.8
      vertex 80 48.1 3.8147e-07
      vertex 80 48.5 0.405
    endloop
  endfacet
  facet normal 1 -0 0
    outer loop
      vertex 80 -47.5 1.8
      vertex 80 48.1 3.8147e-07
      vertex 80 47.5 1.8
    endloop
  endfacet
  facet normal 1 0 0
    outer loop
      vertex 80 -47.5 1.8
      vertex 80 -48.1 3.8147e-07
      vertex 80 48.1 3.8147e-07
    endloop
  endfacet
  facet normal 1 -0 0
    outer loop
      vertex 80 -48.5 0.405
      vertex 80 -48.1 3.8147e-07
      vertex 80 -47.5 1.8
    endloop
  endfacet
  facet normal 1 0 0
    outer loop
      vertex 80 -48.1 3.8147e-07
      vertex 80 -48.5 0.405
      vertex 80 -48.5 0.395001
    endloop
  endfacet
  facet normal 0 0.812748 0.582615
    outer loop
      vertex 80 48.5 0.405
      vertex 60 47.5 1.8
      vertex 80 47.5 1.8
    endloop
  endfacet
  facet normal 0 0.812748 0.582615
    outer loop
      vertex 60 47.5 1.8
      vertex 80 48.5 0.405
      vertex 60 48.5 0.405
    endloop
  endfacet
  facet normal -1 0 0
    outer loop
      vertex 60 48.1 3.8147e-07
      vertex 60 48.5 0.405
      vertex 60 48.5 0.395001
    endloop
  endfacet
  facet normal -1 0 0
    outer loop
      vertex 60 48.1 3.8147e-07
      vertex 60 47.5 1.8
      vertex 60 48.5 0.405
    endloop
  endfacet
  facet normal -1 0 0
    outer loop
      vertex 60 48.1 3.8147e-07
      vertex 60 -47.5 1.8
      vertex 60 47.5 1.8
    endloop
  endfacet
  facet normal -1 0 0
    outer loop
      vertex 60 -48.1 3.8147e-07
      vertex 60 -47.5 1.8
      vertex 60 48.1 3.8147e-07
    endloop
  endfacet
  facet normal -1 0 0
    outer loop
      vertex 60 -48.5 0.405
      vertex 60 -48.1 3.8147e-07
      vertex 60 -48.5 0.395001
    endloop
  endfacet
  facet normal -1 0 0
    outer loop
      vertex 60 -48.1 3.8147e-07
      vertex 60 -48.5 0.405
      vertex 60 -47.5 1.8
    endloop
  endfacet
  facet normal -1 0 0
    outer loop
      vertex 112 -34.5 3.8147e-07
      vertex 112 -4 1.8
      vertex 112 -4 3.8147e-07
    endloop
  endfacet
  facet normal -1 -0 0
    outer loop
      vertex 112 -4 1.8
      vertex 112 -34.5 3.8147e-07
      vertex 112 -34.5 1.8
    endloop
  endfacet
  facet normal 1 -0 0
    outer loop
      vertex 98 -34.5 1.8
      vertex 98 -4 3.8147e-07
      vertex 98 -4 1.8
    endloop
  endfacet
  facet normal 1 0 0
    outer loop
      vertex 98 -4 3.8147e-07
      vertex 98 -34.5 1.8
      vertex 98 -34.5 3.8147e-07
    endloop
  endfacet
  facet normal 0 -1 0
    outer loop
      vertex 98 -4 3.8147e-07
      vertex 112 -4 1.8
      vertex 98 -4 1.8
    endloop
  endfacet
  facet normal 0 -1 -0
    outer loop
      vertex 112 -4 1.8
      vertex 98 -4 3.8147e-07
      vertex 112 -4 3.8147e-07
    endloop
  endfacet
  facet normal 0 1 -0
    outer loop
      vertex 112 -34.5 3.8147e-07
      vertex 98 -34.5 1.8
      vertex 112 -34.5 1.8
    endloop
  endfacet
  facet normal 0 1 0
    outer loop
      vertex 98 -34.5 1.8
      vertex 112 -34.5 3.8147e-07
      vertex 98 -34.5 3.8147e-07
    endloop
  endfacet
  facet normal -1 0 0
    outer loop
      vertex 112 4 3.8147e-07
      vertex 112 34.5 1.8
      vertex 112 34.5 3.8147e-07
    endloop
  endfacet
  facet normal -1 -0 0
    outer loop
      vertex 112 34.5 1.8
      vertex 112 4 3.8147e-07
      vertex 112 4 1.8
    endloop
  endfacet
  facet normal 1 -0 0
    outer loop
      vertex 98 4 1.8
      vertex 98 34.5 3.8147e-07
      vertex 98 34.5 1.8
    endloop
  endfacet
  facet normal 1 0 0
    outer loop
      vertex 98 34.5 3.8147e-07
      vertex 98 4 1.8
      vertex 98 4 3.8147e-07
    endloop
  endfacet
  facet normal 0 -1 0
    outer loop
      vertex 98 34.5 3.8147e-07
      vertex 112 34.5 1.8
      vertex 98 34.5 1.8
    endloop
  endfacet
  facet normal 0 -1 -0
    outer loop
      vertex 112 34.5 1.8
      vertex 98 34.5 3.8147e-07
      vertex 112 34.5 3.8147e-07
    endloop
  endfacet
  facet normal 0 1 -0
    outer loop
      vertex 112 4 3.8147e-07
      vertex 98 4 1.8
      vertex 112 4 1.8
    endloop
  endfacet
  facet normal 0 1 0
    outer loop
      vertex 98 4 1.8
      vertex 112 4 3.8147e-07
      vertex 98 4 3.8147e-07
    endloop
  endfacet
  facet normal -0 0 1
    outer loop
      vertex 98 4 1.8
      vertex 112 -4 1.8
      vertex 112 4 1.8
    endloop
  endfacet
  facet normal 0 0 1
    outer loop
      vertex 112 -4 1.8
      vertex 98 4 1.8
      vertex 98 -4 1.8
    endloop
  endfacet
  facet normal 0 0 1
    outer loop
      vertex 112 4 1.8
      vertex 115 47.5 1.8
      vertex 112 34.5 1.8
    endloop
  endfacet
  facet normal 0 0 1
    outer loop
      vertex 115 47.5 1.8
      vertex 98 34.5 1.8
      vertex 112 34.5 1.8
    endloop
  endfacet
  facet normal 0 0 1
    outer loop
      vertex 95 47.5 1.8
      vertex 98 4 1.8
      vertex 98 34.5 1.8
    endloop
  endfacet
  facet normal 0 0 1
    outer loop
      vertex 98 4 1.8
      vertex 95 47.5 1.8
      vertex 98 -4 1.8
    endloop
  endfacet
  facet normal 0 0 1
    outer loop
      vertex 95 -47.5 1.8
      vertex 98 -4 1.8
      vertex 95 47.5 1.8
    endloop
  endfacet
  facet normal -0 0 1
    outer loop
      vertex 95 47.5 1.8
      vertex 98 34.5 1.8
      vertex 115 47.5 1.8
    endloop
  endfacet
  facet normal 0 0 1
    outer loop
      vertex 115 47.5 1.8
      vertex 112 4 1.8
      vertex 115 -47.5 1.8
    endloop
  endfacet
  facet normal -0 0 1
    outer loop
      vertex 112 -4 1.8
      vertex 115 -47.5 1.8
      vertex 112 4 1.8
    endloop
  endfacet
  facet normal -0 0 1
    outer loop
      vertex 112 -34.5 1.8
      vertex 115 -47.5 1.8
      vertex 112 -4 1.8
    endloop
  endfacet
  facet normal -0 0 1
    outer loop
      vertex 98 -34.5 1.8
      vertex 115 -47.5 1.8
      vertex 112 -34.5 1.8
    endloop
  endfacet
  facet normal 0 0 1
    outer loop
      vertex 98 -34.5 1.8
      vertex 95 -47.5 1.8
      vertex 115 -47.5 1.8
    endloop
  endfacet
  facet normal 0 0 1
    outer loop
      vertex 98 -4 1.8
      vertex 95 -47.5 1.8
      vertex 98 -34.5 1.8
    endloop
  endfacet
  facet normal 0 0.702646 -0.711539
    outer loop
      vertex 95 48.1 3.8147e-07
      vertex 115 48.5 0.395001
      vertex 115 48.1 3.8147e-07
    endloop
  endfacet
  facet normal 0 0.702646 -0.711539
    outer loop
      vertex 115 48.5 0.395001
      vertex 95 48.1 3.8147e-07
      vertex 95 48.5 0.395001
    endloop
  endfacet
  facet normal 0 0 -1
    outer loop
      vertex 98 -4 3.8147e-07
      vertex 112 4 3.8147e-07
      vertex 112 -4 3.8147e-07
    endloop
  endfacet
  facet normal -0 0 -1
    outer loop
      vertex 112 4 3.8147e-07
      vertex 98 -4 3.8147e-07
      vertex 98 4 3.8147e-07
    endloop
  endfacet
  facet normal 0 0 -1
    outer loop
      vertex 112 -4 3.8147e-07
      vertex 115 -48.1 3.8147e-07
      vertex 112 -34.5 3.8147e-07
    endloop
  endfacet
  facet normal 0 0 -1
    outer loop
      vertex 115 -48.1 3.8147e-07
      vertex 98 -34.5 3.8147e-07
      vertex 112 -34.5 3.8147e-07
    endloop
  endfacet
  facet normal 0 0 -1
    outer loop
      vertex 95 -48.1 3.8147e-07
      vertex 98 -4 3.8147e-07
      vertex 98 -34.5 3.8147e-07
    endloop
  endfacet
  facet normal -0 0 -1
    outer loop
      vertex 98 -4 3.8147e-07
      vertex 95 -48.1 3.8147e-07
      vertex 98 4 3.8147e-07
    endloop
  endfacet
  facet normal 0 0 -1
    outer loop
      vertex 95 48.1 3.8147e-07
      vertex 98 4 3.8147e-07
      vertex 95 -48.1 3.8147e-07
    endloop
  endfacet
  facet normal 0 0 -1
    outer loop
      vertex 95 -48.1 3.8147e-07
      vertex 98 -34.5 3.8147e-07
      vertex 115 -48.1 3.8147e-07
    endloop
  endfacet
  facet normal 0 0 -1
    outer loop
      vertex 115 -48.1 3.8147e-07
      vertex 112 -4 3.8147e-07
      vertex 115 48.1 3.8147e-07
    endloop
  endfacet
  facet normal 0 0 -1
    outer loop
      vertex 112 4 3.8147e-07
      vertex 115 48.1 3.8147e-07
      vertex 112 -4 3.8147e-07
    endloop
  endfacet
  facet normal 0 0 -1
    outer loop
      vertex 112 34.5 3.8147e-07
      vertex 115 48.1 3.8147e-07
      vertex 112 4 3.8147e-07
    endloop
  endfacet
  facet normal 0 0 -1
    outer loop
      vertex 98 34.5 3.8147e-07
      vertex 115 48.1 3.8147e-07
      vertex 112 34.5 3.8147e-07
    endloop
  endfacet
  facet normal 0 0 -1
    outer loop
      vertex 98 34.5 3.8147e-07
      vertex 95 48.1 3.8147e-07
      vertex 115 48.1 3.8147e-07
    endloop
  endfacet
  facet normal 0 0 -1
    outer loop
      vertex 98 4 3.8147e-07
      vertex 95 48.1 3.8147e-07
      vertex 98 34.5 3.8147e-07
    endloop
  endfacet
  facet normal 0 1 -0
    outer loop
      vertex 115 48.5 0.395001
      vertex 95 48.5 0.405
      vertex 115 48.5 0.405
    endloop
  endfacet
  facet normal 0 1 0
    outer loop
      vertex 95 48.5 0.405
      vertex 115 48.5 0.395001
      vertex 95 48.5 0.395001
    endloop
  endfacet
  facet normal 0 -1 0
    outer loop
      vertex 95 -48.5 0.395001
      vertex 115 -48.5 0.405
      vertex 95 -48.5 0.405
    endloop
  endfacet
  facet normal 0 -1 -0
    outer loop
      vertex 115 -48.5 0.405
      vertex 95 -48.5 0.395001
      vertex 115 -48.5 0.395001
    endloop
  endfacet
  facet normal 0 -0.702646 -0.711539
    outer loop
      vertex 95 -48.5 0.395001
      vertex 115 -48.1 3.8147e-07
      vertex 115 -48.5 0.395001
    endloop
  endfacet
  facet normal -0 -0.702646 -0.711539
    outer loop
      vertex 115 -48.1 3.8147e-07
      vertex 95 -48.5 0.395001
      vertex 95 -48.1 3.8147e-07
    endloop
  endfacet
  facet normal 0 -0.812748 0.582615
    outer loop
      vertex 95 -48.5 0.405
      vertex 115 -47.5 1.8
      vertex 95 -47.5 1.8
    endloop
  endfacet
  facet normal 0 -0.812748 0.582615
    outer loop
      vertex 115 -47.5 1.8
      vertex 95 -48.5 0.405
      vertex 115 -48.5 0.405
    endloop
  endfacet
  facet normal 1 0 0
    outer loop
      vertex 115 48.5 0.405
      vertex 115 48.1 3.8147e-07
      vertex 115 48.5 0.395001
    endloop
  endfacet
  facet normal 1 0 0
    outer loop
      vertex 115 47.5 1.8
      vertex 115 48.1 3.8147e-07
      vertex 115 48.5 0.405
    endloop
  endfacet
  facet normal 1 -0 0
    outer loop
      vertex 115 -47.5 1.8
      vertex 115 48.1 3.8147e-07
      vertex 115 47.5 1.8
    endloop
  endfacet
  facet normal 1 0 0
    outer loop
      vertex 115 -47.5 1.8
      vertex 115 -48.1 3.8147e-07
      vertex 115 48.1 3.8147e-07
    endloop
  endfacet
  facet normal 1 -0 0
    outer loop
      vertex 115 -48.5 0.405
      vertex 115 -48.1 3.8147e-07
      vertex 115 -47.5 1.8
    endloop
  endfacet
  facet normal 1 0 0
    outer loop
      vertex 115 -48.1 3.8147e-07
      vertex 115 -48.5 0.405
      vertex 115 -48.5 0.395001
    endloop
  endfacet
  facet normal 0 0.812748 0.582615
    outer loop
      vertex 115 48.5 0.405
      vertex 95 47.5 1.8
      vertex 115 47.5 1.8
    endloop
  endfacet
  facet normal 0 0.812748 0.582615
    outer loop
      vertex 95 47.5 1.8
      vertex 115 48.5 0.405
      vertex 95 48.5 0.405
    endloop
  endfacet
  facet normal -1 0 0
    outer loop
      vertex 95 48.1 3.8147e-07
      vertex 95 48.5 0.405
      vertex 95 48.5 0.395001
    endloop
  endfacet
  facet normal -1 0 0
    outer loop
      vertex 95 48.1 3.8147e-07
      vertex 95 47.5 1.8
      vertex 95 48.5 0.405
    endloop
  endfacet
  facet normal -1 0 0
    outer loop
      vertex 95 48.1 3.8147e-07
      vertex 95 -47.5 1.8
      vertex 95 47.5 1.8
    endloop
  endfacet
  facet normal -1 0 0
    outer loop
      vertex 95 -48.1 3.8147e-07
      vertex 95 -47.5 1.8
      vertex 95 48.1 3.8147e-07
    endloop
  endfacet
  facet normal -1 0 0
    outer loop
      vertex 95 -48.5 0.405
      vertex 95 -48.1 3.8147e-07
      vertex 95 -48.5 0.395001
    endloop
  endfacet
  facet normal -1 0 0
    outer loop
      vertex 95 -48.1 3.8147e-07
      vertex 95 -48.5 0.405
      vertex 95 -47.5 1.8
    endloop
  endfacet
endsolid OpenSCAD_Model
