solid OpenSCAD_Model
  facet normal -0 0 1
    outer loop
      vertex -109.2 33.5 0.9
      vertex -82.8 -33.5 0.9
      vertex -82.8 33.5 0.9
    endloop
  endfacet
  facet normal 0 0 1
    outer loop
      vertex -82.8 -33.5 0.9
      vertex -109.2 33.5 0.9
      vertex -109.2 -33.5 0.9
    endloop
  endfacet
  facet normal -0 0 1
    outer loop
      vertex -80.4 33.5 0.9
      vertex -52.2 -33.5 0.9
      vertex -52.2 33.5 0.9
    endloop
  endfacet
  facet normal 0 0 1
    outer loop
      vertex -52.2 -33.5 0.9
      vertex -80.4 33.5 0.9
      vertex -80.4 -33.5 0.9
    endloop
  endfacet
  facet normal -0 0 1
    outer loop
      vertex -49.8 33.5 0.9
      vertex -23.4 -33.5 0.9
      vertex -23.4 33.5 0.9
    endloop
  endfacet
  facet normal 0 0 1
    outer loop
      vertex -23.4 -33.5 0.9
      vertex -49.8 33.5 0.9
      vertex -49.8 -33.5 0.9
    endloop
  endfacet
  facet normal -0 0 1
    outer loop
      vertex 23.4 33.5 0.9
      vertex 49.8 -33.5 0.9
      vertex 49.8 33.5 0.9
    endloop
  endfacet
  facet normal 0 0 1
    outer loop
      vertex 49.8 -33.5 0.9
      vertex 23.4 33.5 0.9
      vertex 23.4 -33.5 0.9
    endloop
  endfacet
  facet normal -0 0 1
    outer loop
      vertex 52.2 33.5 0.9
      vertex 80.4 -33.5 0.9
      vertex 80.4 33.5 0.9
    endloop
  endfacet
  facet normal 0 0 1
    outer loop
      vertex 80.4 -33.5 0.9
      vertex 52.2 33.5 0.9
      vertex 52.2 -33.5 0.9
    endloop
  endfacet
  facet normal -0 0 1
    outer loop
      vertex 82.8 33.5 0.9
      vertex 109.2 -33.5 0.9
      vertex 109.2 33.5 0.9
    endloop
  endfacet
  facet normal 0 0 1
    outer loop
      vertex 109.2 -33.5 0.9
      vertex 82.8 33.5 0.9
      vertex 82.8 -33.5 0.9
    endloop
  endfacet
  facet normal 0 0 1
    outer loop
      vertex 109.2 33.5 0.9
      vertex 112.2 47.5 0.9
      vertex 109.2 45 0.9
    endloop
  endfacet
  facet normal 0 0 1
    outer loop
      vertex 112.2 47.5 0.9
      vertex 82.8 45 0.9
      vertex 109.2 45 0.9
    endloop
  endfacet
  facet normal 0 0 1
    outer loop
      vertex 80.4 33.5 0.9
      vertex 82.8 33.5 0.9
      vertex 82.8 45 0.9
    endloop
  endfacet
  facet normal 0 0 1
    outer loop
      vertex 82.8 33.5 0.9
      vertex 80.4 33.5 0.9
      vertex 82.8 -33.5 0.9
    endloop
  endfacet
  facet normal 0 0 1
    outer loop
      vertex 80.4 33.5 0.9
      vertex 82.8 45 0.9
      vertex 80.4 45 0.9
    endloop
  endfacet
  facet normal 0 0 1
    outer loop
      vertex 112.2 47.5 0.9
      vertex 80.4 45 0.9
      vertex 82.8 45 0.9
    endloop
  endfacet
  facet normal 0 0 1
    outer loop
      vertex 112.2 47.5 0.9
      vertex 52.2 45 0.9
      vertex 80.4 45 0.9
    endloop
  endfacet
  facet normal 0 0 1
    outer loop
      vertex 49.8 33.5 0.9
      vertex 52.2 33.5 0.9
      vertex 52.2 45 0.9
    endloop
  endfacet
  facet normal 0 0 1
    outer loop
      vertex 52.2 33.5 0.9
      vertex 49.8 33.5 0.9
      vertex 52.2 -33.5 0.9
    endloop
  endfacet
  facet normal 0 0 1
    outer loop
      vertex 49.8 33.5 0.9
      vertex 52.2 45 0.9
      vertex 49.8 45 0.9
    endloop
  endfacet
  facet normal 0 0 1
    outer loop
      vertex 112.2 47.5 0.9
      vertex 49.8 45 0.9
      vertex 52.2 45 0.9
    endloop
  endfacet
  facet normal 0 0 1
    outer loop
      vertex 112.2 47.5 0.9
      vertex 23.4 45 0.9
      vertex 49.8 45 0.9
    endloop
  endfacet
  facet normal -0 0 1
    outer loop
      vertex 20.4 45 0.9
      vertex 23.4 33.5 0.9
      vertex 23.4 45 0.9
    endloop
  endfacet
  facet normal 0 0 1
    outer loop
      vertex 23.4 33.5 0.9
      vertex 20.4 45 0.9
      vertex 23.4 -33.5 0.9
    endloop
  endfacet
  facet normal 0 0 1
    outer loop
      vertex 20.4 -45 0.9
      vertex 23.4 -33.5 0.9
      vertex 20.4 45 0.9
    endloop
  endfacet
  facet normal 0 0 1
    outer loop
      vertex 112.2 47.5 0.9
      vertex 20.4 45 0.9
      vertex 23.4 45 0.9
    endloop
  endfacet
  facet normal 0 0 1
    outer loop
      vertex 112.2 47.5 0.9
      vertex -20.4 45 0.9
      vertex 20.4 45 0.9
    endloop
  endfacet
  facet normal 0 0 1
    outer loop
      vertex -23.4 33.5 0.9
      vertex -20.4 45 0.9
      vertex -23.4 45 0.9
    endloop
  endfacet
  facet normal 0 0 1
    outer loop
      vertex 112.2 47.5 0.9
      vertex -23.4 45 0.9
      vertex -20.4 45 0.9
    endloop
  endfacet
  facet normal -0 0 1
    outer loop
      vertex -112.2 47.5 0.9
      vertex -23.4 45 0.9
      vertex 112.2 47.5 0.9
    endloop
  endfacet
  facet normal 0 0 1
    outer loop
      vertex -52.2 33.5 0.9
      vertex -49.8 33.5 0.9
      vertex -49.8 45 0.9
    endloop
  endfacet
  facet normal 0 0 1
    outer loop
      vertex -49.8 33.5 0.9
      vertex -52.2 33.5 0.9
      vertex -49.8 -33.5 0.9
    endloop
  endfacet
  facet normal 0 0 1
    outer loop
      vertex -52.2 33.5 0.9
      vertex -49.8 45 0.9
      vertex -52.2 45 0.9
    endloop
  endfacet
  facet normal 0 0 1
    outer loop
      vertex -23.4 45 0.9
      vertex -112.2 47.5 0.9
      vertex -49.8 45 0.9
    endloop
  endfacet
  facet normal 0 0 1
    outer loop
      vertex -49.8 45 0.9
      vertex -112.2 47.5 0.9
      vertex -52.2 45 0.9
    endloop
  endfacet
  facet normal 0 0 1
    outer loop
      vertex -82.8 33.5 0.9
      vertex -80.4 33.5 0.9
      vertex -80.4 45 0.9
    endloop
  endfacet
  facet normal 0 0 1
    outer loop
      vertex -80.4 33.5 0.9
      vertex -82.8 33.5 0.9
      vertex -80.4 -33.5 0.9
    endloop
  endfacet
  facet normal 0 0 1
    outer loop
      vertex -82.8 33.5 0.9
      vertex -80.4 45 0.9
      vertex -82.8 45 0.9
    endloop
  endfacet
  facet normal 0 0 1
    outer loop
      vertex -52.2 45 0.9
      vertex -112.2 47.5 0.9
      vertex -80.4 45 0.9
    endloop
  endfacet
  facet normal 0 0 1
    outer loop
      vertex -80.4 45 0.9
      vertex -112.2 47.5 0.9
      vertex -82.8 45 0.9
    endloop
  endfacet
  facet normal 0 0 1
    outer loop
      vertex -112.2 47.5 0.9
      vertex -109.2 33.5 0.9
      vertex -109.2 45 0.9
    endloop
  endfacet
  facet normal 0 0 1
    outer loop
      vertex -109.2 33.5 0.9
      vertex -112.2 47.5 0.9
      vertex -109.2 -33.5 0.9
    endloop
  endfacet
  facet normal 0 0 1
    outer loop
      vertex -112.2 -47.5 0.9
      vertex -109.2 -33.5 0.9
      vertex -112.2 47.5 0.9
    endloop
  endfacet
  facet normal 0 0 1
    outer loop
      vertex -82.8 45 0.9
      vertex -112.2 47.5 0.9
      vertex -109.2 45 0.9
    endloop
  endfacet
  facet normal 0 0 1
    outer loop
      vertex 112.2 47.5 0.9
      vertex 109.2 33.5 0.9
      vertex 112.2 -47.5 0.9
    endloop
  endfacet
  facet normal -0 0 1
    outer loop
      vertex 109.2 -33.5 0.9
      vertex 112.2 -47.5 0.9
      vertex 109.2 33.5 0.9
    endloop
  endfacet
  facet normal -0 0 1
    outer loop
      vertex 109.2 -45 0.9
      vertex 112.2 -47.5 0.9
      vertex 109.2 -33.5 0.9
    endloop
  endfacet
  facet normal -0 0 1
    outer loop
      vertex 82.8 -45 0.9
      vertex 112.2 -47.5 0.9
      vertex 109.2 -45 0.9
    endloop
  endfacet
  facet normal 0 0 1
    outer loop
      vertex 80.4 -33.5 0.9
      vertex 82.8 -33.5 0.9
      vertex 80.4 33.5 0.9
    endloop
  endfacet
  facet normal 0 0 1
    outer loop
      vertex 82.8 -33.5 0.9
      vertex 80.4 -33.5 0.9
      vertex 82.8 -45 0.9
    endloop
  endfacet
  facet normal 0 0 1
    outer loop
      vertex 80.4 -45 0.9
      vertex 82.8 -45 0.9
      vertex 80.4 -33.5 0.9
    endloop
  endfacet
  facet normal -0 0 1
    outer loop
      vertex 80.4 -45 0.9
      vertex 112.2 -47.5 0.9
      vertex 82.8 -45 0.9
    endloop
  endfacet
  facet normal -0 0 1
    outer loop
      vertex 52.2 -45 0.9
      vertex 112.2 -47.5 0.9
      vertex 80.4 -45 0.9
    endloop
  endfacet
  facet normal 0 0 1
    outer loop
      vertex 49.8 -33.5 0.9
      vertex 52.2 -33.5 0.9
      vertex 49.8 33.5 0.9
    endloop
  endfacet
  facet normal 0 0 1
    outer loop
      vertex 52.2 -33.5 0.9
      vertex 49.8 -33.5 0.9
      vertex 52.2 -45 0.9
    endloop
  endfacet
  facet normal 0 0 1
    outer loop
      vertex 49.8 -45 0.9
      vertex 52.2 -45 0.9
      vertex 49.8 -33.5 0.9
    endloop
  endfacet
  facet normal -0 0 1
    outer loop
      vertex 49.8 -45 0.9
      vertex 112.2 -47.5 0.9
      vertex 52.2 -45 0.9
    endloop
  endfacet
  facet normal -0 0 1
    outer loop
      vertex 23.4 -45 0.9
      vertex 112.2 -47.5 0.9
      vertex 49.8 -45 0.9
    endloop
  endfacet
  facet normal 0 0 1
    outer loop
      vertex 23.4 -33.5 0.9
      vertex 20.4 -45 0.9
      vertex 23.4 -45 0.9
    endloop
  endfacet
  facet normal -0 0 1
    outer loop
      vertex 20.4 -45 0.9
      vertex 112.2 -47.5 0.9
      vertex 23.4 -45 0.9
    endloop
  endfacet
  facet normal -0 0 1
    outer loop
      vertex -20.4 -45 0.9
      vertex 112.2 -47.5 0.9
      vertex 20.4 -45 0.9
    endloop
  endfacet
  facet normal 0 0 1
    outer loop
      vertex -20.4 45 0.9
      vertex -23.4 33.5 0.9
      vertex -20.4 -45 0.9
    endloop
  endfacet
  facet normal -0 0 1
    outer loop
      vertex -23.4 -33.5 0.9
      vertex -20.4 -45 0.9
      vertex -23.4 33.5 0.9
    endloop
  endfacet
  facet normal 0 0 1
    outer loop
      vertex -23.4 -45 0.9
      vertex -20.4 -45 0.9
      vertex -23.4 -33.5 0.9
    endloop
  endfacet
  facet normal -0 0 1
    outer loop
      vertex -23.4 -45 0.9
      vertex 112.2 -47.5 0.9
      vertex -20.4 -45 0.9
    endloop
  endfacet
  facet normal 0 0 1
    outer loop
      vertex -112.2 -47.5 0.9
      vertex -23.4 -45 0.9
      vertex -49.8 -45 0.9
    endloop
  endfacet
  facet normal 0 0 1
    outer loop
      vertex -52.2 -33.5 0.9
      vertex -49.8 -33.5 0.9
      vertex -52.2 33.5 0.9
    endloop
  endfacet
  facet normal 0 0 1
    outer loop
      vertex -49.8 -33.5 0.9
      vertex -52.2 -33.5 0.9
      vertex -49.8 -45 0.9
    endloop
  endfacet
  facet normal 0 0 1
    outer loop
      vertex -52.2 -45 0.9
      vertex -49.8 -45 0.9
      vertex -52.2 -33.5 0.9
    endloop
  endfacet
  facet normal 0 0 1
    outer loop
      vertex -112.2 -47.5 0.9
      vertex -49.8 -45 0.9
      vertex -52.2 -45 0.9
    endloop
  endfacet
  facet normal 0 0 1
    outer loop
      vertex -112.2 -47.5 0.9
      vertex -52.2 -45 0.9
      vertex -80.4 -45 0.9
    endloop
  endfacet
  facet normal 0 0 1
    outer loop
      vertex -82.8 -33.5 0.9
      vertex -80.4 -33.5 0.9
      vertex -82.8 33.5 0.9
    endloop
  endfacet
  facet normal 0 0 1
    outer loop
      vertex -80.4 -33.5 0.9
      vertex -82.8 -33.5 0.9
      vertex -80.4 -45 0.9
    endloop
  endfacet
  facet normal 0 0 1
    outer loop
      vertex -82.8 -45 0.9
      vertex -80.4 -45 0.9
      vertex -82.8 -33.5 0.9
    endloop
  endfacet
  facet normal 0 0 1
    outer loop
      vertex -112.2 -47.5 0.9
      vertex -80.4 -45 0.9
      vertex -82.8 -45 0.9
    endloop
  endfacet
  facet normal 0 0 1
    outer loop
      vertex -112.2 -47.5 0.9
      vertex -82.8 -45 0.9
      vertex -109.2 -45 0.9
    endloop
  endfacet
  facet normal 0 0 1
    outer loop
      vertex -23.4 -45 0.9
      vertex -112.2 -47.5 0.9
      vertex 112.2 -47.5 0.9
    endloop
  endfacet
  facet normal 0 0 1
    outer loop
      vertex -109.2 -33.5 0.9
      vertex -112.2 -47.5 0.9
      vertex -109.2 -45 0.9
    endloop
  endfacet
  facet normal 0 0 -1
    outer loop
      vertex -109.2 -33.5 -0.9
      vertex -82.8 33.5 -0.9
      vertex -82.8 -33.5 -0.9
    endloop
  endfacet
  facet normal -0 0 -1
    outer loop
      vertex -82.8 33.5 -0.9
      vertex -109.2 -33.5 -0.9
      vertex -109.2 33.5 -0.9
    endloop
  endfacet
  facet normal 0 0 -1
    outer loop
      vertex -80.4 -33.5 -0.9
      vertex -52.2 33.5 -0.9
      vertex -52.2 -33.5 -0.9
    endloop
  endfacet
  facet normal -0 0 -1
    outer loop
      vertex -52.2 33.5 -0.9
      vertex -80.4 -33.5 -0.9
      vertex -80.4 33.5 -0.9
    endloop
  endfacet
  facet normal 0 0 -1
    outer loop
      vertex -49.8 -33.5 -0.9
      vertex -23.4 33.5 -0.9
      vertex -23.4 -33.5 -0.9
    endloop
  endfacet
  facet normal -0 0 -1
    outer loop
      vertex -23.4 33.5 -0.9
      vertex -49.8 -33.5 -0.9
      vertex -49.8 33.5 -0.9
    endloop
  endfacet
  facet normal 0 0 -1
    outer loop
      vertex 23.4 -33.5 -0.9
      vertex 49.8 33.5 -0.9
      vertex 49.8 -33.5 -0.9
    endloop
  endfacet
  facet normal -0 0 -1
    outer loop
      vertex 49.8 33.5 -0.9
      vertex 23.4 -33.5 -0.9
      vertex 23.4 33.5 -0.9
    endloop
  endfacet
  facet normal 0 0 -1
    outer loop
      vertex 52.2 -33.5 -0.9
      vertex 80.4 33.5 -0.9
      vertex 80.4 -33.5 -0.9
    endloop
  endfacet
  facet normal -0 0 -1
    outer loop
      vertex 80.4 33.5 -0.9
      vertex 52.2 -33.5 -0.9
      vertex 52.2 33.5 -0.9
    endloop
  endfacet
  facet normal 0 0 -1
    outer loop
      vertex 82.8 -33.5 -0.9
      vertex 109.2 33.5 -0.9
      vertex 109.2 -33.5 -0.9
    endloop
  endfacet
  facet normal -0 0 -1
    outer loop
      vertex 109.2 33.5 -0.9
      vertex 82.8 -33.5 -0.9
      vertex 82.8 33.5 -0.9
    endloop
  endfacet
  facet normal 0 0 -1
    outer loop
      vertex 109.2 -33.5 -0.9
      vertex 112.2 -48.1 -0.9
      vertex 109.2 -45 -0.9
    endloop
  endfacet
  facet normal 0 0 -1
    outer loop
      vertex 112.2 -48.1 -0.9
      vertex 82.8 -45 -0.9
      vertex 109.2 -45 -0.9
    endloop
  endfacet
  facet normal 0 0 -1
    outer loop
      vertex 80.4 -33.5 -0.9
      vertex 82.8 -33.5 -0.9
      vertex 82.8 -45 -0.9
    endloop
  endfacet
  facet normal 0 0 -1
    outer loop
      vertex 82.8 -33.5 -0.9
      vertex 80.4 -33.5 -0.9
      vertex 82.8 33.5 -0.9
    endloop
  endfacet
  facet normal 0 0 -1
    outer loop
      vertex 80.4 -33.5 -0.9
      vertex 82.8 -45 -0.9
      vertex 80.4 -45 -0.9
    endloop
  endfacet
  facet normal 0 0 -1
    outer loop
      vertex 112.2 -48.1 -0.9
      vertex 80.4 -45 -0.9
      vertex 82.8 -45 -0.9
    endloop
  endfacet
  facet normal 0 0 -1
    outer loop
      vertex 112.2 -48.1 -0.9
      vertex 52.2 -45 -0.9
      vertex 80.4 -45 -0.9
    endloop
  endfacet
  facet normal 0 0 -1
    outer loop
      vertex 49.8 -33.5 -0.9
      vertex 52.2 -33.5 -0.9
      vertex 52.2 -45 -0.9
    endloop
  endfacet
  facet normal 0 0 -1
    outer loop
      vertex 52.2 -33.5 -0.9
      vertex 49.8 -33.5 -0.9
      vertex 52.2 33.5 -0.9
    endloop
  endfacet
  facet normal 0 0 -1
    outer loop
      vertex 49.8 -33.5 -0.9
      vertex 52.2 -45 -0.9
      vertex 49.8 -45 -0.9
    endloop
  endfacet
  facet normal 0 0 -1
    outer loop
      vertex 112.2 -48.1 -0.9
      vertex 49.8 -45 -0.9
      vertex 52.2 -45 -0.9
    endloop
  endfacet
  facet normal 0 0 -1
    outer loop
      vertex 112.2 -48.1 -0.9
      vertex 23.4 -45 -0.9
      vertex 49.8 -45 -0.9
    endloop
  endfacet
  facet normal 0 0 -1
    outer loop
      vertex 20.4 -45 -0.9
      vertex 23.4 -33.5 -0.9
      vertex 23.4 -45 -0.9
    endloop
  endfacet
  facet normal -0 0 -1
    outer loop
      vertex 23.4 -33.5 -0.9
      vertex 20.4 -45 -0.9
      vertex 23.4 33.5 -0.9
    endloop
  endfacet
  facet normal 0 0 -1
    outer loop
      vertex 20.4 45 -0.9
      vertex 23.4 33.5 -0.9
      vertex 20.4 -45 -0.9
    endloop
  endfacet
  facet normal 0 0 -1
    outer loop
      vertex 112.2 -48.1 -0.9
      vertex 20.4 -45 -0.9
      vertex 23.4 -45 -0.9
    endloop
  endfacet
  facet normal 0 0 -1
    outer loop
      vertex 112.2 -48.1 -0.9
      vertex -20.4 -45 -0.9
      vertex 20.4 -45 -0.9
    endloop
  endfacet
  facet normal 0 0 -1
    outer loop
      vertex -23.4 -33.5 -0.9
      vertex -20.4 -45 -0.9
      vertex -23.4 -45 -0.9
    endloop
  endfacet
  facet normal 0 0 -1
    outer loop
      vertex -112.2 -48.1 -0.9
      vertex -20.4 -45 -0.9
      vertex 112.2 -48.1 -0.9
    endloop
  endfacet
  facet normal -0 0 -1
    outer loop
      vertex -20.4 -45 -0.9
      vertex -112.2 -48.1 -0.9
      vertex -23.4 -45 -0.9
    endloop
  endfacet
  facet normal 0 0 -1
    outer loop
      vertex -52.2 -33.5 -0.9
      vertex -49.8 -33.5 -0.9
      vertex -49.8 -45 -0.9
    endloop
  endfacet
  facet normal 0 0 -1
    outer loop
      vertex -49.8 -33.5 -0.9
      vertex -52.2 -33.5 -0.9
      vertex -49.8 33.5 -0.9
    endloop
  endfacet
  facet normal 0 0 -1
    outer loop
      vertex -52.2 -33.5 -0.9
      vertex -49.8 -45 -0.9
      vertex -52.2 -45 -0.9
    endloop
  endfacet
  facet normal -0 0 -1
    outer loop
      vertex -23.4 -45 -0.9
      vertex -112.2 -48.1 -0.9
      vertex -49.8 -45 -0.9
    endloop
  endfacet
  facet normal -0 0 -1
    outer loop
      vertex -49.8 -45 -0.9
      vertex -112.2 -48.1 -0.9
      vertex -52.2 -45 -0.9
    endloop
  endfacet
  facet normal 0 0 -1
    outer loop
      vertex -82.8 -33.5 -0.9
      vertex -80.4 -33.5 -0.9
      vertex -80.4 -45 -0.9
    endloop
  endfacet
  facet normal 0 0 -1
    outer loop
      vertex -80.4 -33.5 -0.9
      vertex -82.8 -33.5 -0.9
      vertex -80.4 33.5 -0.9
    endloop
  endfacet
  facet normal 0 0 -1
    outer loop
      vertex -82.8 -33.5 -0.9
      vertex -80.4 -45 -0.9
      vertex -82.8 -45 -0.9
    endloop
  endfacet
  facet normal -0 0 -1
    outer loop
      vertex -52.2 -45 -0.9
      vertex -112.2 -48.1 -0.9
      vertex -80.4 -45 -0.9
    endloop
  endfacet
  facet normal -0 0 -1
    outer loop
      vertex -80.4 -45 -0.9
      vertex -112.2 -48.1 -0.9
      vertex -82.8 -45 -0.9
    endloop
  endfacet
  facet normal 0 0 -1
    outer loop
      vertex -112.2 -48.1 -0.9
      vertex -109.2 -33.5 -0.9
      vertex -109.2 -45 -0.9
    endloop
  endfacet
  facet normal -0 0 -1
    outer loop
      vertex -109.2 -33.5 -0.9
      vertex -112.2 -48.1 -0.9
      vertex -109.2 33.5 -0.9
    endloop
  endfacet
  facet normal 0 0 -1
    outer loop
      vertex -112.2 48.1 -0.9
      vertex -109.2 33.5 -0.9
      vertex -112.2 -48.1 -0.9
    endloop
  endfacet
  facet normal -0 0 -1
    outer loop
      vertex -82.8 -45 -0.9
      vertex -112.2 -48.1 -0.9
      vertex -109.2 -45 -0.9
    endloop
  endfacet
  facet normal 0 0 -1
    outer loop
      vertex 112.2 -48.1 -0.9
      vertex 109.2 -33.5 -0.9
      vertex 112.2 48.1 -0.9
    endloop
  endfacet
  facet normal 0 0 -1
    outer loop
      vertex 109.2 33.5 -0.9
      vertex 112.2 48.1 -0.9
      vertex 109.2 -33.5 -0.9
    endloop
  endfacet
  facet normal 0 0 -1
    outer loop
      vertex 109.2 45 -0.9
      vertex 112.2 48.1 -0.9
      vertex 109.2 33.5 -0.9
    endloop
  endfacet
  facet normal 0 0 -1
    outer loop
      vertex 82.8 45 -0.9
      vertex 112.2 48.1 -0.9
      vertex 109.2 45 -0.9
    endloop
  endfacet
  facet normal 0 0 -1
    outer loop
      vertex 80.4 33.5 -0.9
      vertex 82.8 33.5 -0.9
      vertex 80.4 -33.5 -0.9
    endloop
  endfacet
  facet normal 0 0 -1
    outer loop
      vertex 82.8 33.5 -0.9
      vertex 80.4 33.5 -0.9
      vertex 82.8 45 -0.9
    endloop
  endfacet
  facet normal 0 0 -1
    outer loop
      vertex 80.4 45 -0.9
      vertex 82.8 45 -0.9
      vertex 80.4 33.5 -0.9
    endloop
  endfacet
  facet normal 0 0 -1
    outer loop
      vertex 80.4 45 -0.9
      vertex 112.2 48.1 -0.9
      vertex 82.8 45 -0.9
    endloop
  endfacet
  facet normal 0 0 -1
    outer loop
      vertex 52.2 45 -0.9
      vertex 112.2 48.1 -0.9
      vertex 80.4 45 -0.9
    endloop
  endfacet
  facet normal 0 0 -1
    outer loop
      vertex 49.8 33.5 -0.9
      vertex 52.2 33.5 -0.9
      vertex 49.8 -33.5 -0.9
    endloop
  endfacet
  facet normal 0 0 -1
    outer loop
      vertex 52.2 33.5 -0.9
      vertex 49.8 33.5 -0.9
      vertex 52.2 45 -0.9
    endloop
  endfacet
  facet normal 0 0 -1
    outer loop
      vertex 49.8 45 -0.9
      vertex 52.2 45 -0.9
      vertex 49.8 33.5 -0.9
    endloop
  endfacet
  facet normal 0 0 -1
    outer loop
      vertex 49.8 45 -0.9
      vertex 112.2 48.1 -0.9
      vertex 52.2 45 -0.9
    endloop
  endfacet
  facet normal 0 0 -1
    outer loop
      vertex 23.4 45 -0.9
      vertex 112.2 48.1 -0.9
      vertex 49.8 45 -0.9
    endloop
  endfacet
  facet normal 0 0 -1
    outer loop
      vertex 23.4 33.5 -0.9
      vertex 20.4 45 -0.9
      vertex 23.4 45 -0.9
    endloop
  endfacet
  facet normal 0 0 -1
    outer loop
      vertex 20.4 45 -0.9
      vertex 112.2 48.1 -0.9
      vertex 23.4 45 -0.9
    endloop
  endfacet
  facet normal 0 0 -1
    outer loop
      vertex -20.4 45 -0.9
      vertex 112.2 48.1 -0.9
      vertex 20.4 45 -0.9
    endloop
  endfacet
  facet normal 0 0 -1
    outer loop
      vertex -20.4 -45 -0.9
      vertex -23.4 -33.5 -0.9
      vertex -20.4 45 -0.9
    endloop
  endfacet
  facet normal 0 0 -1
    outer loop
      vertex -23.4 33.5 -0.9
      vertex -20.4 45 -0.9
      vertex -23.4 -33.5 -0.9
    endloop
  endfacet
  facet normal 0 0 -1
    outer loop
      vertex -23.4 45 -0.9
      vertex -20.4 45 -0.9
      vertex -23.4 33.5 -0.9
    endloop
  endfacet
  facet normal 0 0 -1
    outer loop
      vertex -112.2 48.1 -0.9
      vertex -20.4 45 -0.9
      vertex -23.4 45 -0.9
    endloop
  endfacet
  facet normal 0 0 -1
    outer loop
      vertex -112.2 48.1 -0.9
      vertex -23.4 45 -0.9
      vertex -49.8 45 -0.9
    endloop
  endfacet
  facet normal 0 0 -1
    outer loop
      vertex -52.2 33.5 -0.9
      vertex -49.8 33.5 -0.9
      vertex -52.2 -33.5 -0.9
    endloop
  endfacet
  facet normal 0 0 -1
    outer loop
      vertex -49.8 33.5 -0.9
      vertex -52.2 33.5 -0.9
      vertex -49.8 45 -0.9
    endloop
  endfacet
  facet normal 0 0 -1
    outer loop
      vertex -52.2 45 -0.9
      vertex -49.8 45 -0.9
      vertex -52.2 33.5 -0.9
    endloop
  endfacet
  facet normal 0 0 -1
    outer loop
      vertex -112.2 48.1 -0.9
      vertex -49.8 45 -0.9
      vertex -52.2 45 -0.9
    endloop
  endfacet
  facet normal 0 0 -1
    outer loop
      vertex -112.2 48.1 -0.9
      vertex -52.2 45 -0.9
      vertex -80.4 45 -0.9
    endloop
  endfacet
  facet normal 0 0 -1
    outer loop
      vertex -82.8 33.5 -0.9
      vertex -80.4 33.5 -0.9
      vertex -82.8 -33.5 -0.9
    endloop
  endfacet
  facet normal 0 0 -1
    outer loop
      vertex -80.4 33.5 -0.9
      vertex -82.8 33.5 -0.9
      vertex -80.4 45 -0.9
    endloop
  endfacet
  facet normal 0 0 -1
    outer loop
      vertex -82.8 45 -0.9
      vertex -80.4 45 -0.9
      vertex -82.8 33.5 -0.9
    endloop
  endfacet
  facet normal 0 0 -1
    outer loop
      vertex -112.2 48.1 -0.9
      vertex -80.4 45 -0.9
      vertex -82.8 45 -0.9
    endloop
  endfacet
  facet normal 0 0 -1
    outer loop
      vertex -112.2 48.1 -0.9
      vertex -82.8 45 -0.9
      vertex -109.2 45 -0.9
    endloop
  endfacet
  facet normal 0 0 -1
    outer loop
      vertex -20.4 45 -0.9
      vertex -112.2 48.1 -0.9
      vertex 112.2 48.1 -0.9
    endloop
  endfacet
  facet normal 0 0 -1
    outer loop
      vertex -109.2 33.5 -0.9
      vertex -112.2 48.1 -0.9
      vertex -109.2 45 -0.9
    endloop
  endfacet
  facet normal 0 -1 0
    outer loop
      vertex -112.2 -48.5 -0.504999
      vertex 112.2 -48.5 -0.495
      vertex -112.2 -48.5 -0.495
    endloop
  endfacet
  facet normal 0 -1 -0
    outer loop
      vertex 112.2 -48.5 -0.495
      vertex -112.2 -48.5 -0.504999
      vertex 112.2 -48.5 -0.504999
    endloop
  endfacet
  facet normal 0 -0.702647 -0.711539
    outer loop
      vertex -112.2 -48.5 -0.504999
      vertex 112.2 -48.1 -0.9
      vertex 112.2 -48.5 -0.504999
    endloop
  endfacet
  facet normal -0 -0.702647 -0.711539
    outer loop
      vertex 112.2 -48.1 -0.9
      vertex -112.2 -48.5 -0.504999
      vertex -112.2 -48.1 -0.9
    endloop
  endfacet
  facet normal 0 -0.812748 0.582615
    outer loop
      vertex -112.2 -48.5 -0.495
      vertex 112.2 -47.5 0.9
      vertex -112.2 -47.5 0.9
    endloop
  endfacet
  facet normal 0 -0.812748 0.582615
    outer loop
      vertex 112.2 -47.5 0.9
      vertex -112.2 -48.5 -0.495
      vertex 112.2 -48.5 -0.495
    endloop
  endfacet
  facet normal -1 0 0
    outer loop
      vertex 20.4 -45 -0.9
      vertex 20.4 45 0.9
      vertex 20.4 45 -0.9
    endloop
  endfacet
  facet normal -1 -0 0
    outer loop
      vertex 20.4 45 0.9
      vertex 20.4 -45 -0.9
      vertex 20.4 -45 0.9
    endloop
  endfacet
  facet normal 1 -0 0
    outer loop
      vertex -20.4 -45 0.9
      vertex -20.4 45 -0.9
      vertex -20.4 45 0.9
    endloop
  endfacet
  facet normal 1 0 0
    outer loop
      vertex -20.4 45 -0.9
      vertex -20.4 -45 0.9
      vertex -20.4 -45 -0.9
    endloop
  endfacet
  facet normal 0 1 -0
    outer loop
      vertex 20.4 -45 -0.9
      vertex -20.4 -45 0.9
      vertex 20.4 -45 0.9
    endloop
  endfacet
  facet normal 0 1 0
    outer loop
      vertex -20.4 -45 0.9
      vertex 20.4 -45 -0.9
      vertex -20.4 -45 -0.9
    endloop
  endfacet
  facet normal 0 0.702647 -0.711539
    outer loop
      vertex -112.2 48.1 -0.9
      vertex 112.2 48.5 -0.504999
      vertex 112.2 48.1 -0.9
    endloop
  endfacet
  facet normal 0 0.702647 -0.711539
    outer loop
      vertex 112.2 48.5 -0.504999
      vertex -112.2 48.1 -0.9
      vertex -112.2 48.5 -0.504999
    endloop
  endfacet
  facet normal 0 1 -0
    outer loop
      vertex 112.2 48.5 -0.504999
      vertex -112.2 48.5 -0.495
      vertex 112.2 48.5 -0.495
    endloop
  endfacet
  facet normal 0 1 0
    outer loop
      vertex -112.2 48.5 -0.495
      vertex 112.2 48.5 -0.504999
      vertex -112.2 48.5 -0.504999
    endloop
  endfacet
  facet normal 0 0.812748 0.582615
    outer loop
      vertex 112.2 48.5 -0.495
      vertex -112.2 47.5 0.9
      vertex 112.2 47.5 0.9
    endloop
  endfacet
  facet normal 0 0.812748 0.582615
    outer loop
      vertex -112.2 47.5 0.9
      vertex 112.2 48.5 -0.495
      vertex -112.2 48.5 -0.495
    endloop
  endfacet
  facet normal 0 -1 0
    outer loop
      vertex -20.4 45 -0.9
      vertex 20.4 45 0.9
      vertex -20.4 45 0.9
    endloop
  endfacet
  facet normal 0 -1 -0
    outer loop
      vertex 20.4 45 0.9
      vertex -20.4 45 -0.9
      vertex 20.4 45 -0.9
    endloop
  endfacet
  facet normal -1 0 0
    outer loop
      vertex -112.2 48.1 -0.9
      vertex -112.2 48.5 -0.495
      vertex -112.2 48.5 -0.504999
    endloop
  endfacet
  facet normal -1 0 0
    outer loop
      vertex -112.2 48.1 -0.9
      vertex -112.2 47.5 0.9
      vertex -112.2 48.5 -0.495
    endloop
  endfacet
  facet normal -1 0 0
    outer loop
      vertex -112.2 48.1 -0.9
      vertex -112.2 -47.5 0.9
      vertex -112.2 47.5 0.9
    endloop
  endfacet
  facet normal -1 0 0
    outer loop
      vertex -112.2 -48.1 -0.9
      vertex -112.2 -47.5 0.9
      vertex -112.2 48.1 -0.9
    endloop
  endfacet
  facet normal -1 0 0
    outer loop
      vertex -112.2 -48.5 -0.495
      vertex -112.2 -48.1 -0.9
      vertex -112.2 -48.5 -0.504999
    endloop
  endfacet
  facet normal -1 0 0
    outer loop
      vertex -112.2 -48.1 -0.9
      vertex -112.2 -48.5 -0.495
      vertex -112.2 -47.5 0.9
    endloop
  endfacet
  facet normal 1 0 0
    outer loop
      vertex 112.2 48.5 -0.495
      vertex 112.2 48.1 -0.9
      vertex 112.2 48.5 -0.504999
    endloop
  endfacet
  facet normal 1 0 0
    outer loop
      vertex 112.2 47.5 0.9
      vertex 112.2 48.1 -0.9
      vertex 112.2 48.5 -0.495
    endloop
  endfacet
  facet normal 1 -0 0
    outer loop
      vertex 112.2 -47.5 0.9
      vertex 112.2 48.1 -0.9
      vertex 112.2 47.5 0.9
    endloop
  endfacet
  facet normal 1 0 0
    outer loop
      vertex 112.2 -47.5 0.9
      vertex 112.2 -48.1 -0.9
      vertex 112.2 48.1 -0.9
    endloop
  endfacet
  facet normal 1 -0 0
    outer loop
      vertex 112.2 -48.5 -0.495
      vertex 112.2 -48.1 -0.9
      vertex 112.2 -47.5 0.9
    endloop
  endfacet
  facet normal 1 0 0
    outer loop
      vertex 112.2 -48.1 -0.9
      vertex 112.2 -48.5 -0.495
      vertex 112.2 -48.5 -0.504999
    endloop
  endfacet
  facet normal 1 -0 0
    outer loop
      vertex -80.4 33.5 0.9
      vertex -80.4 45 -0.9
      vertex -80.4 45 0.9
    endloop
  endfacet
  facet normal 1 0 0
    outer loop
      vertex -80.4 45 -0.9
      vertex -80.4 33.5 0.9
      vertex -80.4 33.5 -0.9
    endloop
  endfacet
  facet normal -1 0 0
    outer loop
      vertex -82.8 33.5 -0.9
      vertex -82.8 45 0.9
      vertex -82.8 45 -0.9
    endloop
  endfacet
  facet normal -1 -0 0
    outer loop
      vertex -82.8 45 0.9
      vertex -82.8 33.5 -0.9
      vertex -82.8 33.5 0.9
    endloop
  endfacet
  facet normal 1 -0 0
    outer loop
      vertex -49.8 33.5 0.9
      vertex -49.8 45 -0.9
      vertex -49.8 45 0.9
    endloop
  endfacet
  facet normal 1 0 0
    outer loop
      vertex -49.8 45 -0.9
      vertex -49.8 33.5 0.9
      vertex -49.8 33.5 -0.9
    endloop
  endfacet
  facet normal -1 0 0
    outer loop
      vertex -52.2 33.5 -0.9
      vertex -52.2 45 0.9
      vertex -52.2 45 -0.9
    endloop
  endfacet
  facet normal -1 -0 0
    outer loop
      vertex -52.2 45 0.9
      vertex -52.2 33.5 -0.9
      vertex -52.2 33.5 0.9
    endloop
  endfacet
  facet normal -1 0 0
    outer loop
      vertex -23.4 33.5 -0.9
      vertex -23.4 45 0.9
      vertex -23.4 45 -0.9
    endloop
  endfacet
  facet normal -1 -0 0
    outer loop
      vertex -23.4 45 0.9
      vertex -23.4 33.5 -0.9
      vertex -23.4 33.5 0.9
    endloop
  endfacet
  facet normal 1 -0 0
    outer loop
      vertex -109.2 33.5 0.9
      vertex -109.2 45 -0.9
      vertex -109.2 45 0.9
    endloop
  endfacet
  facet normal 1 0 0
    outer loop
      vertex -109.2 45 -0.9
      vertex -109.2 33.5 0.9
      vertex -109.2 33.5 -0.9
    endloop
  endfacet
  facet normal 0 -1 0
    outer loop
      vertex -109.2 45 -0.9
      vertex -82.8 45 0.9
      vertex -109.2 45 0.9
    endloop
  endfacet
  facet normal 0 -1 -0
    outer loop
      vertex -82.8 45 0.9
      vertex -109.2 45 -0.9
      vertex -82.8 45 -0.9
    endloop
  endfacet
  facet normal 0 -1 0
    outer loop
      vertex -80.4 45 -0.9
      vertex -52.2 45 0.9
      vertex -80.4 45 0.9
    endloop
  endfacet
  facet normal 0 -1 -0
    outer loop
      vertex -52.2 45 0.9
      vertex -80.4 45 -0.9
      vertex -52.2 45 -0.9
    endloop
  endfacet
  facet normal 0 -1 0
    outer loop
      vertex -49.8 45 -0.9
      vertex -23.4 45 0.9
      vertex -49.8 45 0.9
    endloop
  endfacet
  facet normal 0 -1 -0
    outer loop
      vertex -23.4 45 0.9
      vertex -49.8 45 -0.9
      vertex -23.4 45 -0.9
    endloop
  endfacet
  facet normal 0 1 -0
    outer loop
      vertex -82.8 33.5 -0.9
      vertex -109.2 33.5 0.9
      vertex -82.8 33.5 0.9
    endloop
  endfacet
  facet normal 0 1 0
    outer loop
      vertex -109.2 33.5 0.9
      vertex -82.8 33.5 -0.9
      vertex -109.2 33.5 -0.9
    endloop
  endfacet
  facet normal 0 1 -0
    outer loop
      vertex -52.2 33.5 -0.9
      vertex -80.4 33.5 0.9
      vertex -52.2 33.5 0.9
    endloop
  endfacet
  facet normal 0 1 0
    outer loop
      vertex -80.4 33.5 0.9
      vertex -52.2 33.5 -0.9
      vertex -80.4 33.5 -0.9
    endloop
  endfacet
  facet normal 0 1 -0
    outer loop
      vertex -23.4 33.5 -0.9
      vertex -49.8 33.5 0.9
      vertex -23.4 33.5 0.9
    endloop
  endfacet
  facet normal 0 1 0
    outer loop
      vertex -49.8 33.5 0.9
      vertex -23.4 33.5 -0.9
      vertex -49.8 33.5 -0.9
    endloop
  endfacet
  facet normal 1 -0 0
    outer loop
      vertex -80.4 -45 0.9
      vertex -80.4 -33.5 -0.9
      vertex -80.4 -33.5 0.9
    endloop
  endfacet
  facet normal 1 0 0
    outer loop
      vertex -80.4 -33.5 -0.9
      vertex -80.4 -45 0.9
      vertex -80.4 -45 -0.9
    endloop
  endfacet
  facet normal -1 0 0
    outer loop
      vertex -82.8 -45 -0.9
      vertex -82.8 -33.5 0.9
      vertex -82.8 -33.5 -0.9
    endloop
  endfacet
  facet normal -1 -0 0
    outer loop
      vertex -82.8 -33.5 0.9
      vertex -82.8 -45 -0.9
      vertex -82.8 -45 0.9
    endloop
  endfacet
  facet normal 1 -0 0
    outer loop
      vertex -49.8 -45 0.9
      vertex -49.8 -33.5 -0.9
      vertex -49.8 -33.5 0.9
    endloop
  endfacet
  facet normal 1 0 0
    outer loop
      vertex -49.8 -33.5 -0.9
      vertex -49.8 -45 0.9
      vertex -49.8 -45 -0.9
    endloop
  endfacet
  facet normal -1 0 0
    outer loop
      vertex -52.2 -45 -0.9
      vertex -52.2 -33.5 0.9
      vertex -52.2 -33.5 -0.9
    endloop
  endfacet
  facet normal -1 -0 0
    outer loop
      vertex -52.2 -33.5 0.9
      vertex -52.2 -45 -0.9
      vertex -52.2 -45 0.9
    endloop
  endfacet
  facet normal -1 0 0
    outer loop
      vertex -23.4 -45 -0.9
      vertex -23.4 -33.5 0.9
      vertex -23.4 -33.5 -0.9
    endloop
  endfacet
  facet normal -1 -0 0
    outer loop
      vertex -23.4 -33.5 0.9
      vertex -23.4 -45 -0.9
      vertex -23.4 -45 0.9
    endloop
  endfacet
  facet normal 1 -0 0
    outer loop
      vertex -109.2 -45 0.9
      vertex -109.2 -33.5 -0.9
      vertex -109.2 -33.5 0.9
    endloop
  endfacet
  facet normal 1 0 0
    outer loop
      vertex -109.2 -33.5 -0.9
      vertex -109.2 -45 0.9
      vertex -109.2 -45 -0.9
    endloop
  endfacet
  facet normal 0 -1 0
    outer loop
      vertex -109.2 -33.5 -0.9
      vertex -82.8 -33.5 0.9
      vertex -109.2 -33.5 0.9
    endloop
  endfacet
  facet normal 0 -1 -0
    outer loop
      vertex -82.8 -33.5 0.9
      vertex -109.2 -33.5 -0.9
      vertex -82.8 -33.5 -0.9
    endloop
  endfacet
  facet normal 0 -1 0
    outer loop
      vertex -80.4 -33.5 -0.9
      vertex -52.2 -33.5 0.9
      vertex -80.4 -33.5 0.9
    endloop
  endfacet
  facet normal 0 -1 -0
    outer loop
      vertex -52.2 -33.5 0.9
      vertex -80.4 -33.5 -0.9
      vertex -52.2 -33.5 -0.9
    endloop
  endfacet
  facet normal 0 -1 0
    outer loop
      vertex -49.8 -33.5 -0.9
      vertex -23.4 -33.5 0.9
      vertex -49.8 -33.5 0.9
    endloop
  endfacet
  facet normal 0 -1 -0
    outer loop
      vertex -23.4 -33.5 0.9
      vertex -49.8 -33.5 -0.9
      vertex -23.4 -33.5 -0.9
    endloop
  endfacet
  facet normal 0 1 -0
    outer loop
      vertex -82.8 -45 -0.9
      vertex -109.2 -45 0.9
      vertex -82.8 -45 0.9
    endloop
  endfacet
  facet normal 0 1 0
    outer loop
      vertex -109.2 -45 0.9
      vertex -82.8 -45 -0.9
      vertex -109.2 -45 -0.9
    endloop
  endfacet
  facet normal 0 1 -0
    outer loop
      vertex -52.2 -45 -0.9
      vertex -80.4 -45 0.9
      vertex -52.2 -45 0.9
    endloop
  endfacet
  facet normal 0 1 0
    outer loop
      vertex -80.4 -45 0.9
      vertex -52.2 -45 -0.9
      vertex -80.4 -45 -0.9
    endloop
  endfacet
  facet normal 0 1 -0
    outer loop
      vertex -23.4 -45 -0.9
      vertex -49.8 -45 0.9
      vertex -23.4 -45 0.9
    endloop
  endfacet
  facet normal 0 1 0
    outer loop
      vertex -49.8 -45 0.9
      vertex -23.4 -45 -0.9
      vertex -49.8 -45 -0.9
    endloop
  endfacet
  facet normal 1 -0 0
    outer loop
      vertex 52.2 33.5 0.9
      vertex 52.2 45 -0.9
      vertex 52.2 45 0.9
    endloop
  endfacet
  facet normal 1 0 0
    outer loop
      vertex 52.2 45 -0.9
      vertex 52.2 33.5 0.9
      vertex 52.2 33.5 -0.9
    endloop
  endfacet
  facet normal -1 0 0
    outer loop
      vertex 49.8 33.5 -0.9
      vertex 49.8 45 0.9
      vertex 49.8 45 -0.9
    endloop
  endfacet
  facet normal -1 -0 0
    outer loop
      vertex 49.8 45 0.9
      vertex 49.8 33.5 -0.9
      vertex 49.8 33.5 0.9
    endloop
  endfacet
  facet normal 1 -0 0
    outer loop
      vertex 82.8 33.5 0.9
      vertex 82.8 45 -0.9
      vertex 82.8 45 0.9
    endloop
  endfacet
  facet normal 1 0 0
    outer loop
      vertex 82.8 45 -0.9
      vertex 82.8 33.5 0.9
      vertex 82.8 33.5 -0.9
    endloop
  endfacet
  facet normal -1 0 0
    outer loop
      vertex 80.4 33.5 -0.9
      vertex 80.4 45 0.9
      vertex 80.4 45 -0.9
    endloop
  endfacet
  facet normal -1 -0 0
    outer loop
      vertex 80.4 45 0.9
      vertex 80.4 33.5 -0.9
      vertex 80.4 33.5 0.9
    endloop
  endfacet
  facet normal -1 0 0
    outer loop
      vertex 109.2 33.5 -0.9
      vertex 109.2 45 0.9
      vertex 109.2 45 -0.9
    endloop
  endfacet
  facet normal -1 -0 0
    outer loop
      vertex 109.2 45 0.9
      vertex 109.2 33.5 -0.9
      vertex 109.2 33.5 0.9
    endloop
  endfacet
  facet normal 1 -0 0
    outer loop
      vertex 23.4 33.5 0.9
      vertex 23.4 45 -0.9
      vertex 23.4 45 0.9
    endloop
  endfacet
  facet normal 1 0 0
    outer loop
      vertex 23.4 45 -0.9
      vertex 23.4 33.5 0.9
      vertex 23.4 33.5 -0.9
    endloop
  endfacet
  facet normal 0 -1 0
    outer loop
      vertex 23.4 45 -0.9
      vertex 49.8 45 0.9
      vertex 23.4 45 0.9
    endloop
  endfacet
  facet normal 0 -1 -0
    outer loop
      vertex 49.8 45 0.9
      vertex 23.4 45 -0.9
      vertex 49.8 45 -0.9
    endloop
  endfacet
  facet normal 0 -1 0
    outer loop
      vertex 52.2 45 -0.9
      vertex 80.4 45 0.9
      vertex 52.2 45 0.9
    endloop
  endfacet
  facet normal 0 -1 -0
    outer loop
      vertex 80.4 45 0.9
      vertex 52.2 45 -0.9
      vertex 80.4 45 -0.9
    endloop
  endfacet
  facet normal 0 -1 0
    outer loop
      vertex 82.8 45 -0.9
      vertex 109.2 45 0.9
      vertex 82.8 45 0.9
    endloop
  endfacet
  facet normal 0 -1 -0
    outer loop
      vertex 109.2 45 0.9
      vertex 82.8 45 -0.9
      vertex 109.2 45 -0.9
    endloop
  endfacet
  facet normal 0 1 -0
    outer loop
      vertex 49.8 33.5 -0.9
      vertex 23.4 33.5 0.9
      vertex 49.8 33.5 0.9
    endloop
  endfacet
  facet normal 0 1 0
    outer loop
      vertex 23.4 33.5 0.9
      vertex 49.8 33.5 -0.9
      vertex 23.4 33.5 -0.9
    endloop
  endfacet
  facet normal 0 1 -0
    outer loop
      vertex 80.4 33.5 -0.9
      vertex 52.2 33.5 0.9
      vertex 80.4 33.5 0.9
    endloop
  endfacet
  facet normal 0 1 0
    outer loop
      vertex 52.2 33.5 0.9
      vertex 80.4 33.5 -0.9
      vertex 52.2 33.5 -0.9
    endloop
  endfacet
  facet normal 0 1 -0
    outer loop
      vertex 109.2 33.5 -0.9
      vertex 82.8 33.5 0.9
      vertex 109.2 33.5 0.9
    endloop
  endfacet
  facet normal 0 1 0
    outer loop
      vertex 82.8 33.5 0.9
      vertex 109.2 33.5 -0.9
      vertex 82.8 33.5 -0.9
    endloop
  endfacet
  facet normal 1 -0 0
    outer loop
      vertex 52.2 -45 0.9
      vertex 52.2 -33.5 -0.9
      vertex 52.2 -33.5 0.9
    endloop
  endfacet
  facet normal 1 0 0
    outer loop
      vertex 52.2 -33.5 -0.9
      vertex 52.2 -45 0.9
      vertex 52.2 -45 -0.9
    endloop
  endfacet
  facet normal -1 0 0
    outer loop
      vertex 49.8 -45 -0.9
      vertex 49.8 -33.5 0.9
      vertex 49.8 -33.5 -0.9
    endloop
  endfacet
  facet normal -1 -0 0
    outer loop
      vertex 49.8 -33.5 0.9
      vertex 49.8 -45 -0.9
      vertex 49.8 -45 0.9
    endloop
  endfacet
  facet normal 1 -0 0
    outer loop
      vertex 82.8 -45 0.9
      vertex 82.8 -33.5 -0.9
      vertex 82.8 -33.5 0.9
    endloop
  endfacet
  facet normal 1 0 0
    outer loop
      vertex 82.8 -33.5 -0.9
      vertex 82.8 -45 0.9
      vertex 82.8 -45 -0.9
    endloop
  endfacet
  facet normal -1 0 0
    outer loop
      vertex 80.4 -45 -0.9
      vertex 80.4 -33.5 0.9
      vertex 80.4 -33.5 -0.9
    endloop
  endfacet
  facet normal -1 -0 0
    outer loop
      vertex 80.4 -33.5 0.9
      vertex 80.4 -45 -0.9
      vertex 80.4 -45 0.9
    endloop
  endfacet
  facet normal -1 0 0
    outer loop
      vertex 109.2 -45 -0.9
      vertex 109.2 -33.5 0.9
      vertex 109.2 -33.5 -0.9
    endloop
  endfacet
  facet normal -1 -0 0
    outer loop
      vertex 109.2 -33.5 0.9
      vertex 109.2 -45 -0.9
      vertex 109.2 -45 0.9
    endloop
  endfacet
  facet normal 1 -0 0
    outer loop
      vertex 23.4 -45 0.9
      vertex 23.4 -33.5 -0.9
      vertex 23.4 -33.5 0.9
    endloop
  endfacet
  facet normal 1 0 0
    outer loop
      vertex 23.4 -33.5 -0.9
      vertex 23.4 -45 0.9
      vertex 23.4 -45 -0.9
    endloop
  endfacet
  facet normal 0 -1 0
    outer loop
      vertex 23.4 -33.5 -0.9
      vertex 49.8 -33.5 0.9
      vertex 23.4 -33.5 0.9
    endloop
  endfacet
  facet normal 0 -1 -0
    outer loop
      vertex 49.8 -33.5 0.9
      vertex 23.4 -33.5 -0.9
      vertex 49.8 -33.5 -0.9
    endloop
  endfacet
  facet normal 0 -1 0
    outer loop
      vertex 52.2 -33.5 -0.9
      vertex 80.4 -33.5 0.9
      vertex 52.2 -33.5 0.9
    endloop
  endfacet
  facet normal 0 -1 -0
    outer loop
      vertex 80.4 -33.5 0.9
      vertex 52.2 -33.5 -0.9
      vertex 80.4 -33.5 -0.9
    endloop
  endfacet
  facet normal 0 -1 0
    outer loop
      vertex 82.8 -33.5 -0.9
      vertex 109.2 -33.5 0.9
      vertex 82.8 -33.5 0.9
    endloop
  endfacet
  facet normal 0 -1 -0
    outer loop
      vertex 109.2 -33.5 0.9
      vertex 82.8 -33.5 -0.9
      vertex 109.2 -33.5 -0.9
    endloop
  endfacet
  facet normal 0 1 -0
    outer loop
      vertex 49.8 -45 -0.9
      vertex 23.4 -45 0.9
      vertex 49.8 -45 0.9
    endloop
  endfacet
  facet normal 0 1 0
    outer loop
      vertex 23.4 -45 0.9
      vertex 49.8 -45 -0.9
      vertex 23.4 -45 -0.9
    endloop
  endfacet
  facet normal 0 1 -0
    outer loop
      vertex 80.4 -45 -0.9
      vertex 52.2 -45 0.9
      vertex 80.4 -45 0.9
    endloop
  endfacet
  facet normal 0 1 0
    outer loop
      vertex 52.2 -45 0.9
      vertex 80.4 -45 -0.9
      vertex 52.2 -45 -0.9
    endloop
  endfacet
  facet normal 0 1 -0
    outer loop
      vertex 109.2 -45 -0.9
      vertex 82.8 -45 0.9
      vertex 109.2 -45 0.9
    endloop
  endfacet
  facet normal 0 1 0
    outer loop
      vertex 82.8 -45 0.9
      vertex 109.2 -45 -0.9
      vertex 82.8 -45 -0.9
    endloop
  endfacet
endsolid OpenSCAD_Model
